<svg xmlns="http://www.w3.org/2000/svg" xmlns:xlink="http://www.w3.org/1999/xlink" width="155" height="207" viewBox="0 0 155 207"><defs><style>.a{fill:#fff;}.b,.f{fill:#86b8ff;}.b{font-size:20px;font-family:MyanmarSangamMN, Myanmar Sangam MN;}.c{fill:#a0c7ff;}.d{fill:#707070;}.e{fill:none;stroke:#86b8ff;stroke-width:0.3px;}.g{filter:url(#a);}</style><filter id="a" x="0" y="0" width="155" height="207" filterUnits="userSpaceOnUse"><feOffset dy="3" input="SourceAlpha"/><feGaussianBlur stdDeviation="3" result="b"/><feFlood flood-opacity="0.161"/><feComposite operator="in" in2="b"/><feComposite in="SourceGraphic"/></filter></defs><g transform="translate(-1230 -652)"><g class="g" transform="matrix(1, 0, 0, 1, 1230, 652)"><rect class="a" width="137" height="189" rx="11" transform="translate(9 6)"/></g><text class="b" transform="translate(1247 682)"><tspan x="0" y="0">9</tspan></text><text class="b" transform="translate(1366.748 824.401) rotate(180)"><tspan x="0" y="0">9</tspan></text><g transform="translate(1257.873 699.685)"><g transform="translate(30.979 26.395) rotate(172)"><circle class="c" cx="7.518" cy="7.518" r="7.518" transform="translate(6.095 11.619)"/><circle class="c" cx="7.518" cy="7.518" r="7.518" transform="translate(0 0)"/><circle class="c" cx="7.518" cy="7.518" r="7.518" transform="translate(12.502 0.26)"/></g><g transform="translate(19.647 7.768) rotate(171)"><ellipse class="d" cx="0.492" cy="0.819" rx="0.492" ry="0.819" transform="translate(0 0)"/><ellipse class="d" cx="0.492" cy="0.819" rx="0.492" ry="0.819" transform="translate(8.808 0)"/></g></g><g transform="translate(1234 -9.493)"><g transform="translate(93.583 709.178) rotate(8)"><circle class="c" cx="7.518" cy="7.518" r="7.518" transform="translate(6.095 0)"/><circle class="c" cx="7.518" cy="7.518" r="7.518" transform="translate(0 11.619)"/><circle class="c" cx="7.518" cy="7.518" r="7.518" transform="translate(12.502 11.359)"/></g><g transform="translate(101.462 715.327) rotate(9)"><ellipse class="d" cx="0.492" cy="0.819" rx="0.492" ry="0.819" transform="translate(0 0)"/><ellipse class="d" cx="0.492" cy="0.819" rx="0.492" ry="0.819" transform="translate(8.808 0)"/></g></g><g transform="translate(1257.873 744.685)"><g transform="translate(30.979 26.395) rotate(172)"><circle class="c" cx="7.518" cy="7.518" r="7.518" transform="translate(6.095 11.619)"/><circle class="c" cx="7.518" cy="7.518" r="7.518" transform="translate(0 0)"/><circle class="c" cx="7.518" cy="7.518" r="7.518" transform="translate(12.502 0.26)"/></g><g transform="translate(19.647 7.768) rotate(171)"><ellipse class="d" cx="0.492" cy="0.819" rx="0.492" ry="0.819" transform="translate(0 0)"/><ellipse class="d" cx="0.492" cy="0.819" rx="0.492" ry="0.819" transform="translate(8.808 0)"/></g></g><g transform="translate(1323.873 744.685)"><g transform="translate(3.71) rotate(8)"><circle class="c" cx="7.518" cy="7.518" r="7.518" transform="translate(6.095 0)"/><circle class="c" cx="7.518" cy="7.518" r="7.518" transform="translate(0 11.619)"/><circle class="c" cx="7.518" cy="7.518" r="7.518" transform="translate(12.502 11.359)"/></g><g transform="translate(11.589 6.149) rotate(9)"><ellipse class="d" cx="0.492" cy="0.819" rx="0.492" ry="0.819" transform="translate(0 0)"/><ellipse class="d" cx="0.492" cy="0.819" rx="0.492" ry="0.819" transform="translate(8.808 0)"/></g></g><g transform="translate(1290.873 723.685)"><g transform="translate(3.71) rotate(8)"><circle class="c" cx="7.518" cy="7.518" r="7.518" transform="translate(6.095 0)"/><circle class="c" cx="7.518" cy="7.518" r="7.518" transform="translate(0 11.619)"/><circle class="c" cx="7.518" cy="7.518" r="7.518" transform="translate(12.502 11.359)"/></g><g transform="translate(11.589 6.149) rotate(9)"><ellipse class="d" cx="0.492" cy="0.819" rx="0.492" ry="0.819" transform="translate(0 0)"/><ellipse class="d" cx="0.492" cy="0.819" rx="0.492" ry="0.819" transform="translate(8.808 0)"/></g></g><g transform="translate(1290.873 678.685)"><g transform="translate(3.71) rotate(8)"><circle class="c" cx="7.518" cy="7.518" r="7.518" transform="translate(6.095 0)"/><circle class="c" cx="7.518" cy="7.518" r="7.518" transform="translate(0 11.619)"/><circle class="c" cx="7.518" cy="7.518" r="7.518" transform="translate(12.502 11.359)"/></g><g transform="translate(11.589 6.149) rotate(9)"><ellipse class="d" cx="0.492" cy="0.819" rx="0.492" ry="0.819" transform="translate(0 0)"/><ellipse class="d" cx="0.492" cy="0.819" rx="0.492" ry="0.819" transform="translate(8.808 0)"/></g></g><g transform="translate(1257.873 789.685)"><g transform="translate(30.979 26.395) rotate(172)"><circle class="c" cx="7.518" cy="7.518" r="7.518" transform="translate(6.095 11.619)"/><circle class="c" cx="7.518" cy="7.518" r="7.518" transform="translate(0 0)"/><circle class="c" cx="7.518" cy="7.518" r="7.518" transform="translate(12.502 0.26)"/></g><g transform="translate(19.647 7.768) rotate(171)"><ellipse class="d" cx="0.492" cy="0.819" rx="0.492" ry="0.819" transform="translate(0 0)"/><ellipse class="d" cx="0.492" cy="0.819" rx="0.492" ry="0.819" transform="translate(8.808 0)"/></g></g><g transform="translate(1323.873 789.685)"><g transform="translate(3.71) rotate(8)"><circle class="c" cx="7.518" cy="7.518" r="7.518" transform="translate(6.095 0)"/><circle class="c" cx="7.518" cy="7.518" r="7.518" transform="translate(0 11.619)"/><circle class="c" cx="7.518" cy="7.518" r="7.518" transform="translate(12.502 11.359)"/></g><g transform="translate(11.589 6.149) rotate(9)"><ellipse class="d" cx="0.492" cy="0.819" rx="0.492" ry="0.819" transform="translate(0 0)"/><ellipse class="d" cx="0.492" cy="0.819" rx="0.492" ry="0.819" transform="translate(8.808 0)"/></g></g><g transform="translate(1290.873 768.685)"><g transform="translate(3.71) rotate(8)"><circle class="c" cx="7.518" cy="7.518" r="7.518" transform="translate(6.095 0)"/><circle class="c" cx="7.518" cy="7.518" r="7.518" transform="translate(0 11.619)"/><circle class="c" cx="7.518" cy="7.518" r="7.518" transform="translate(12.502 11.359)"/></g><g transform="translate(11.589 6.149) rotate(9)"><ellipse class="d" cx="0.492" cy="0.819" rx="0.492" ry="0.819" transform="translate(0 0)"/><ellipse class="d" cx="0.492" cy="0.819" rx="0.492" ry="0.819" transform="translate(8.808 0)"/></g></g><g transform="translate(1176)"><g transform="translate(-293.901 211)"><path class="e" d="M373.87,488.621v2.341" transform="translate(-3.504 -4.56)"/></g><circle class="f" cx="2.648" cy="2.648" r="2.648" transform="translate(73.773 686)"/><circle class="f" cx="2.648" cy="2.648" r="2.648" transform="translate(70.463 690.634)"/><circle class="f" cx="2.648" cy="2.648" r="2.648" transform="translate(77.083 690.634)"/></g><g transform="translate(1355.463 809)"><g transform="translate(6.003)"><path class="e" d="M373.87,490.961V488.62" transform="translate(-373.87 -488.621)"/></g><circle class="f" cx="2.648" cy="2.648" r="2.648" transform="translate(3.31 6.105)"/><circle class="f" cx="2.648" cy="2.648" r="2.648" transform="translate(0 1.471)"/><circle class="f" cx="2.648" cy="2.648" r="2.648" transform="translate(6.62 1.471)"/></g></g></svg>