<svg xmlns="http://www.w3.org/2000/svg" xmlns:xlink="http://www.w3.org/1999/xlink" width="155" height="207" viewBox="0 0 155 207"><defs><style>.a{fill:#fff;}.b,.d{fill:#86b8ff;}.b,.e{font-size:20px;font-family:MyanmarSangamMN, Myanmar Sangam MN;}.c,.f{fill:none;stroke-width:0.3px;}.c{stroke:#86b8ff;}.e,.g{fill:#707070;}.f{stroke:#707070;}.h{fill:#a0c7ff;}.i{filter:url(#a);}</style><filter id="a" x="0" y="0" width="155" height="207" filterUnits="userSpaceOnUse"><feOffset dy="3" input="SourceAlpha"/><feGaussianBlur stdDeviation="3" result="b"/><feFlood flood-opacity="0.161"/><feComposite operator="in" in2="b"/><feComposite in="SourceGraphic"/></filter></defs><g transform="translate(-54 -652)"><g class="i" transform="matrix(1, 0, 0, 1, 54, 652)"><rect class="a" width="137" height="189" rx="11" transform="translate(9 6)"/></g><text class="b" transform="translate(69 682)"><tspan x="0" y="0">A</tspan></text><g transform="translate(-293.901 211)"><path class="c" d="M373.87,488.621v2.341" transform="translate(-3.504 -4.56)"/></g><circle class="d" cx="2.648" cy="2.648" r="2.648" transform="translate(73.773 686)"/><circle class="d" cx="2.648" cy="2.648" r="2.648" transform="translate(70.463 690.634)"/><circle class="d" cx="2.648" cy="2.648" r="2.648" transform="translate(77.083 690.634)"/><text class="e" transform="matrix(1, 0, 0, -1, 178, 824.401)"><tspan x="0" y="0">A</tspan></text><g transform="translate(179.463 809)"><g transform="translate(6.003)"><path class="f" d="M373.87,490.961V488.62" transform="translate(-373.87 -488.621)"/></g><circle class="g" cx="2.648" cy="2.648" r="2.648" transform="translate(3.31 6.105)"/><circle class="g" cx="2.648" cy="2.648" r="2.648" transform="translate(0 1.471)"/><circle class="g" cx="2.648" cy="2.648" r="2.648" transform="translate(6.62 1.471)"/></g><text class="b" transform="matrix(1, 0, 0, -1, 178, 824.401)"><tspan x="0" y="0">A</tspan></text><g transform="translate(179.463 809)"><g transform="translate(6.003)"><path class="c" d="M373.87,490.961V488.62" transform="translate(-373.87 -488.621)"/></g><circle class="d" cx="2.648" cy="2.648" r="2.648" transform="translate(3.31 6.105)"/><circle class="d" cx="2.648" cy="2.648" r="2.648" transform="translate(0 1.471)"/><circle class="d" cx="2.648" cy="2.648" r="2.648" transform="translate(6.62 1.471)"/></g><g transform="translate(116.758 18.805) rotate(8)"><circle class="h" cx="20.328" cy="20.328" r="20.328" transform="translate(95.873 686)"/><circle class="h" cx="20.328" cy="20.328" r="20.328" transform="translate(79.392 717.417)"/><circle class="h" cx="20.328" cy="20.328" r="20.328" transform="translate(113.197 716.714)"/></g><g transform="translate(-137.326 139.684) rotate(9)"><ellipse class="g" cx="1.33" cy="2.215" rx="1.33" ry="2.215" transform="translate(347.041 538.461)"/><ellipse class="g" cx="1.33" cy="2.215" rx="1.33" ry="2.215" transform="translate(370.859 538.461)"/></g></g></svg>