<svg xmlns="http://www.w3.org/2000/svg" xmlns:xlink="http://www.w3.org/1999/xlink" width="155" height="207" viewBox="0 0 155 207"><defs><style>.a,.g{fill:#fff;}.b,.d{fill:#86b8ff;}.b{font-size:20px;font-family:MyanmarSangamMN, Myanmar Sangam MN;}.c{fill:none;stroke:#86b8ff;stroke-width:0.3px;}.e{fill:#a0c7ff;}.f{fill:#707070;}.g{stroke:#707070;stroke-miterlimit:10;}.h{filter:url(#a);}</style><filter id="a" x="0" y="0" width="155" height="207" filterUnits="userSpaceOnUse"><feOffset dy="3" input="SourceAlpha"/><feGaussianBlur stdDeviation="3" result="b"/><feFlood flood-opacity="0.161"/><feComposite operator="in" in2="b"/><feComposite in="SourceGraphic"/></filter></defs><g transform="translate(-1818 -652)"><g class="h" transform="matrix(1, 0, 0, 1, 1818, 652)"><rect class="a" width="137" height="189" rx="11" transform="translate(9 6)"/></g><text class="b" transform="translate(1834 682)"><tspan x="0" y="0">K</tspan></text><text class="b" transform="translate(1957 824.401) rotate(180)"><tspan x="0" y="0">K</tspan></text><g transform="translate(1764)"><g transform="translate(-293.901 211)"><path class="c" d="M373.87,488.621v2.341" transform="translate(-3.504 -4.56)"/></g><circle class="d" cx="2.648" cy="2.648" r="2.648" transform="translate(73.773 686)"/><circle class="d" cx="2.648" cy="2.648" r="2.648" transform="translate(70.463 690.634)"/><circle class="d" cx="2.648" cy="2.648" r="2.648" transform="translate(77.083 690.634)"/></g><g transform="translate(1943.463 809)"><g transform="translate(6.003)"><path class="c" d="M373.87,490.961V488.62" transform="translate(-373.87 -488.621)"/></g><circle class="d" cx="2.648" cy="2.648" r="2.648" transform="translate(3.31 6.105)"/><circle class="d" cx="2.648" cy="2.648" r="2.648" transform="translate(0 1.471)"/><circle class="d" cx="2.648" cy="2.648" r="2.648" transform="translate(6.62 1.471)"/></g><g transform="translate(1529.658 176.342)"><g transform="translate(318.215 514.903)"><g transform="translate(7.975) rotate(8)"><circle class="e" cx="16.162" cy="16.162" r="16.162" transform="translate(13.103 0)"/><circle class="e" cx="16.162" cy="16.162" r="16.162" transform="translate(0 24.978)"/><circle class="e" cx="16.162" cy="16.162" r="16.162" transform="translate(26.877 24.419)"/></g><g transform="translate(24.913 13.22) rotate(9)"><ellipse class="f" cx="1.058" cy="1.761" rx="1.058" ry="1.761" transform="translate(0 0)"/><ellipse class="f" cx="1.058" cy="1.761" rx="1.058" ry="1.761" transform="translate(18.936 0)"/></g></g><path class="g" d="M98.17,213.018c.479-1.881,1.1-5.781.528-6.518-1.35-1.451-3.321,3.932-5.6,3.726-.789-.071-1.823-4.082-2.8-4.118-1.678.048-2.5,4.273-3.406,4.323s-5.667-5.411-5.154-1.683l1.836,4.685a13.978,13.978,0,0,0,.627,1.542,33.977,33.977,0,0,0,1.3,3.367c1.7,1.26,3.64-.192,7-.4s4.852-.369,4.786-.36c-.007-.092.036-.16,0,0C97.335,217.588,97.691,214.9,98.17,213.018Z" transform="matrix(0.799, 0.602, -0.602, 0.799, 417.87, 293.61)"/></g><g transform="translate(1875.873 756)"><g transform="translate(58.624 64.983) rotate(-172)"><circle class="e" cx="16.162" cy="16.162" r="16.162" transform="translate(13.103 0)"/><circle class="e" cx="16.162" cy="16.162" r="16.162" transform="translate(0 24.978)"/><circle class="e" cx="16.162" cy="16.162" r="16.162" transform="translate(26.877 24.419)"/></g><g transform="translate(41.686 51.763) rotate(-171)"><ellipse class="f" cx="1.058" cy="1.761" rx="1.058" ry="1.761" transform="translate(0 0)"/><ellipse class="f" cx="1.058" cy="1.761" rx="1.058" ry="1.761" transform="translate(18.936 0)"/></g><path class="g" d="M16.473,6.91c.479-1.881,1.1-5.781.528-6.518-1.35-1.451-3.321,3.932-5.6,3.726C10.611,4.047,9.577.036,8.6,0,6.921.048,6.1,4.273,5.193,4.323S-.474-1.088.039,2.64L1.875,7.324A13.977,13.977,0,0,0,2.5,8.866a33.977,33.977,0,0,0,1.3,3.367c1.7,1.26,3.64-.192,7-.4s4.852-.369,4.786-.36c-.007-.092.036-.16,0,0C15.638,11.479,15.995,8.791,16.473,6.91Z" transform="matrix(-0.799, -0.602, 0.602, -0.799, 25.738, 72.505)"/></g></g></svg>