<svg xmlns="http://www.w3.org/2000/svg" xmlns:xlink="http://www.w3.org/1999/xlink" width="155" height="207" viewBox="0 0 155 207"><defs><style>.a,.g{fill:#fff;}.b,.d{fill:#86b8ff;}.b{font-size:20px;font-family:MyanmarSangamMN, Myanmar Sangam MN;}.c{fill:none;stroke:#86b8ff;stroke-width:0.3px;}.e{fill:#a0c7ff;}.f{fill:#707070;}.g{stroke:#707070;stroke-miterlimit:10;}.h{filter:url(#a);}</style><filter id="a" x="0" y="0" width="155" height="207" filterUnits="userSpaceOnUse"><feOffset dy="3" input="SourceAlpha"/><feGaussianBlur stdDeviation="3" result="b"/><feFlood flood-opacity="0.161"/><feComposite operator="in" in2="b"/><feComposite in="SourceGraphic"/></filter></defs><g transform="translate(-1524 -652)"><g class="h" transform="matrix(1, 0, 0, 1, 1524, 652)"><rect class="a" width="137" height="189" rx="11" transform="translate(9 6)"/></g><text class="b" transform="translate(1541 682)"><tspan x="0" y="0">J</tspan></text><text class="b" transform="translate(1661 824.401) rotate(180)"><tspan x="0" y="0">J</tspan></text><g transform="translate(1470)"><g transform="translate(-293.901 211)"><path class="c" d="M373.87,488.621v2.341" transform="translate(-3.504 -4.56)"/></g><circle class="d" cx="2.648" cy="2.648" r="2.648" transform="translate(73.773 686)"/><circle class="d" cx="2.648" cy="2.648" r="2.648" transform="translate(70.463 690.634)"/><circle class="d" cx="2.648" cy="2.648" r="2.648" transform="translate(77.083 690.634)"/></g><g transform="translate(1649.463 809)"><g transform="translate(6.003)"><path class="c" d="M373.87,490.961V488.62" transform="translate(-373.87 -488.621)"/></g><circle class="d" cx="2.648" cy="2.648" r="2.648" transform="translate(3.31 6.105)"/><circle class="d" cx="2.648" cy="2.648" r="2.648" transform="translate(0 1.471)"/><circle class="d" cx="2.648" cy="2.648" r="2.648" transform="translate(6.62 1.471)"/></g><g transform="translate(1235.658 176.342)"><g transform="translate(318.215 514.903)"><g transform="translate(7.975) rotate(8)"><circle class="e" cx="16.162" cy="16.162" r="16.162" transform="translate(13.103 0)"/><circle class="e" cx="16.162" cy="16.162" r="16.162" transform="translate(0 24.978)"/><circle class="e" cx="16.162" cy="16.162" r="16.162" transform="translate(26.877 24.419)"/></g><g transform="translate(24.913 13.22) rotate(9)"><ellipse class="f" cx="1.058" cy="1.761" rx="1.058" ry="1.761" transform="translate(0 0)"/><ellipse class="f" cx="1.058" cy="1.761" rx="1.058" ry="1.761" transform="translate(18.936 0)"/></g></g><path class="g" d="M343.586,511.733a5.852,5.852,0,0,0-5.308-3.716,9.655,9.655,0,0,0-4.3.779,21.309,21.309,0,0,0-3.48,1.221c-.546.321-1.487,1-1.678,1.638a1.65,1.65,0,0,0,.23,1.254h0a11.67,11.67,0,0,0-4.024,2.479,3.03,3.03,0,0,0-.8,2.363,1.779,1.779,0,0,0,1.925,1.388,4.8,4.8,0,0,0,2.228-1.151l2.107-1.6c.389-.3.778-.593,1.158-.907a1.946,1.946,0,0,1,1.363-.594,26.378,26.378,0,0,1,6.418.618,7.776,7.776,0,0,0,2.137.366,2.333,2.333,0,0,0,1.916-1.016A3.655,3.655,0,0,0,343.586,511.733Z" transform="translate(316.671 -91.541) rotate(28.999)"/></g><g transform="translate(1581.873 756)"><g transform="translate(58.624 64.983) rotate(-172)"><circle class="e" cx="16.162" cy="16.162" r="16.162" transform="translate(13.103 0)"/><circle class="e" cx="16.162" cy="16.162" r="16.162" transform="translate(0 24.978)"/><circle class="e" cx="16.162" cy="16.162" r="16.162" transform="translate(26.877 24.419)"/></g><g transform="translate(41.686 51.763) rotate(-171)"><ellipse class="f" cx="1.058" cy="1.761" rx="1.058" ry="1.761" transform="translate(0 0)"/><ellipse class="f" cx="1.058" cy="1.761" rx="1.058" ry="1.761" transform="translate(18.936 0)"/></g><path class="g" d="M19.4,3.725A5.852,5.852,0,0,0,14.1.009,9.654,9.654,0,0,0,9.8.788,21.314,21.314,0,0,0,6.312,2.01c-.546.321-1.487,1-1.678,1.638A1.65,1.65,0,0,0,4.864,4.9h0A11.669,11.669,0,0,0,.84,7.381a3.03,3.03,0,0,0-.8,2.363,1.779,1.779,0,0,0,1.925,1.388A4.8,4.8,0,0,0,4.189,9.981L6.3,8.38c.389-.3.778-.593,1.158-.907a1.946,1.946,0,0,1,1.363-.594,26.377,26.377,0,0,1,6.418.618,7.776,7.776,0,0,0,2.137.366,2.333,2.333,0,0,0,1.916-1.016A3.655,3.655,0,0,0,19.4,3.725Z" transform="translate(30.895 69.946) rotate(-151.001)"/></g></g></svg>