<svg xmlns="http://www.w3.org/2000/svg" xmlns:xlink="http://www.w3.org/1999/xlink" width="155" height="207" viewBox="0 0 155 207"><defs><style>.a,.g{fill:#fff;}.b,.d{fill:#86b8ff;}.b{font-size:20px;font-family:MyanmarSangamMN, Myanmar Sangam MN;}.c{fill:none;stroke:#86b8ff;stroke-width:0.3px;}.e{fill:#a0c7ff;}.f{fill:#707070;}.g{stroke:#707070;stroke-miterlimit:10;}.h{filter:url(#a);}</style><filter id="a" x="0" y="0" width="155" height="207" filterUnits="userSpaceOnUse"><feOffset dy="3" input="SourceAlpha"/><feGaussianBlur stdDeviation="3" result="b"/><feFlood flood-opacity="0.161"/><feComposite operator="in" in2="b"/><feComposite in="SourceGraphic"/></filter></defs><g transform="translate(-1671 -652)"><g class="h" transform="matrix(1, 0, 0, 1, 1671, 652)"><rect class="a" width="137" height="189" rx="11" transform="translate(9 6)"/></g><text class="b" transform="translate(1686 682)"><tspan x="0" y="0">Q</tspan></text><text class="b" transform="translate(1810 824.401) rotate(180)"><tspan x="0" y="0">Q</tspan></text><g transform="translate(1617)"><g transform="translate(-293.901 211)"><path class="c" d="M373.87,488.621v2.341" transform="translate(-3.504 -4.56)"/></g><circle class="d" cx="2.648" cy="2.648" r="2.648" transform="translate(73.773 686)"/><circle class="d" cx="2.648" cy="2.648" r="2.648" transform="translate(70.463 690.634)"/><circle class="d" cx="2.648" cy="2.648" r="2.648" transform="translate(77.083 690.634)"/></g><g transform="translate(1796.463 809)"><g transform="translate(6.003)"><path class="c" d="M373.87,490.961V488.62" transform="translate(-373.87 -488.621)"/></g><circle class="d" cx="2.648" cy="2.648" r="2.648" transform="translate(3.31 6.105)"/><circle class="d" cx="2.648" cy="2.648" r="2.648" transform="translate(0 1.471)"/><circle class="d" cx="2.648" cy="2.648" r="2.648" transform="translate(6.62 1.471)"/></g><g transform="translate(1382.658 176.342)"><g transform="translate(318.215 514.903)"><g transform="translate(7.975) rotate(8)"><circle class="e" cx="16.162" cy="16.162" r="16.162" transform="translate(13.103 0)"/><circle class="e" cx="16.162" cy="16.162" r="16.162" transform="translate(0 24.978)"/><circle class="e" cx="16.162" cy="16.162" r="16.162" transform="translate(26.877 24.419)"/></g><g transform="translate(24.913 13.22) rotate(9)"><ellipse class="f" cx="1.058" cy="1.761" rx="1.058" ry="1.761" transform="translate(0 0)"/><ellipse class="f" cx="1.058" cy="1.761" rx="1.058" ry="1.761" transform="translate(18.936 0)"/></g></g><path class="g" d="M106.021,211.891a5.483,5.483,0,0,0-1.424-2.229,10.51,10.51,0,0,0-6.792-2.85,6.657,6.657,0,0,0-2.538.224A4.863,4.863,0,0,0,92.11,209.3c-.756,1.429-.364,2.487-.144,3.75h0a2.755,2.755,0,0,0,.338.514,2.631,2.631,0,0,0,.665.491,21.59,21.59,0,0,0,5.714,2.287,7.674,7.674,0,0,0,6.015-.764,3.388,3.388,0,0,0,1.079-1.036,3.317,3.317,0,0,0,.244-2.651Z" transform="translate(316.947 291.035) rotate(14)"/></g><g transform="translate(1728.873 756)"><g transform="translate(58.624 64.983) rotate(-172)"><circle class="e" cx="16.162" cy="16.162" r="16.162" transform="translate(13.103 0)"/><circle class="e" cx="16.162" cy="16.162" r="16.162" transform="translate(0 24.978)"/><circle class="e" cx="16.162" cy="16.162" r="16.162" transform="translate(26.877 24.419)"/></g><g transform="translate(41.686 51.763) rotate(-171)"><ellipse class="f" cx="1.058" cy="1.761" rx="1.058" ry="1.761" transform="translate(0 0)"/><ellipse class="f" cx="1.058" cy="1.761" rx="1.058" ry="1.761" transform="translate(18.936 0)"/></g><path class="g" d="M14.355,5.108a5.483,5.483,0,0,0-1.424-2.229A10.51,10.51,0,0,0,6.139.028,6.657,6.657,0,0,0,3.6.252,4.863,4.863,0,0,0,.444,2.514C-.312,3.943.079,5,.3,6.264h0a2.754,2.754,0,0,0,.338.514,2.632,2.632,0,0,0,.665.491A21.589,21.589,0,0,0,7.016,9.557a7.674,7.674,0,0,0,6.015-.764A3.388,3.388,0,0,0,14.11,7.757a3.317,3.317,0,0,0,.245-2.649Z" transform="translate(28.95 66.033) rotate(-166)"/></g></g></svg>