<svg xmlns="http://www.w3.org/2000/svg" xmlns:xlink="http://www.w3.org/1999/xlink" width="155" height="207" viewBox="0 0 155 207"><defs><style>.a{fill:#fff;}.b,.c{fill:#ff83a8;}.b{font-size:20px;font-family:MyanmarSangamMN, Myanmar Sangam MN;}.d,.f{fill:none;}.d{stroke:#ff83a8;stroke-width:0.3px;}.e{fill:#3b86f2;}.f{stroke:#3b86f2;stroke-miterlimit:10;}.g{filter:url(#a);}</style><filter id="a" x="0" y="0" width="155" height="207" filterUnits="userSpaceOnUse"><feOffset dy="3" input="SourceAlpha"/><feGaussianBlur stdDeviation="3" result="b"/><feFlood flood-opacity="0.161"/><feComposite operator="in" in2="b"/><feComposite in="SourceGraphic"/></filter></defs><g transform="translate(-54 -451)"><g class="g" transform="matrix(1, 0, 0, 1, 54, 451)"><rect class="a" width="137" height="189" rx="11" transform="translate(9 6)"/></g><text class="b" transform="translate(69 481)"><tspan x="0" y="0">A</tspan></text><g transform="translate(-292.901 11)"><rect class="c" width="8" height="8" transform="translate(369.557 471.757) rotate(45)"/><path class="d" d="M369.557,484.061V486.4" transform="translate(0 -0.493)"/></g><text class="b" transform="matrix(1, 0, 0, -1, 178, 620.905)"><tspan x="0" y="0">A</tspan></text><g transform="translate(180 605)"><rect class="c" width="8" height="8" transform="translate(0 8.491) rotate(-45)"/><path class="d" d="M369.557,486.4v-2.337" transform="translate(-363.901 -484.061)"/></g><g transform="translate(60.54 21.738)"><path class="c" d="M80.546,614.924a200.814,200.814,0,0,0-15.99-28.8,122.138,122.138,0,0,0-22.789-25.51c7.153-2.877,13.807-8.6,19.684-13.081,10.364-7.894,17.693-17.906,27.484-26.256,6.394,7.964,9.178,17.518,13.309,26.35a110.157,110.157,0,0,0,8.671,15.178q2.64,3.868,5.629,7.55c1.212,1.492,5.3,4.769,1.7,5.853C96.927,582.63,78.713,595.975,67.9,613.094" transform="translate(-8.254 -32.939)"/><ellipse class="e" cx="1.622" cy="1.403" rx="1.622" ry="1.403" transform="translate(61.947 515.073)"/><ellipse class="e" cx="1.622" cy="1.403" rx="1.622" ry="1.403" transform="translate(77.389 515.802)"/><path class="f" d="M51.154,596.177a108.037,108.037,0,0,0,8.578,13.713l-.172-.263" transform="translate(-14.076 -79.399)"/><path class="f" d="M38.688,602.848a108.232,108.232,0,0,0,13.187,9.609" transform="translate(-6.344 -83.537)"/><path class="f" d="M190.626,613.919l10.115-13.051,1.938-2.5" transform="translate(-100.584 -80.757)"/><path class="f" d="M190.406,620.765l12.683-8.588c.392-.265,1.059-.49,1.293-.111" transform="translate(-100.448 -89.13)"/></g></g></svg>