<svg xmlns="http://www.w3.org/2000/svg" xmlns:xlink="http://www.w3.org/1999/xlink" width="155" height="207" viewBox="0 0 155 207"><defs><style>.a{fill:#fff;}.b,.c{fill:#ff83a8;}.b{font-size:20px;font-family:MyanmarSangamMN, Myanmar Sangam MN;}.d,.f{fill:none;}.d{stroke:#ff83a8;stroke-width:0.3px;}.e{fill:#3b86f2;}.f{stroke:#3b86f2;stroke-miterlimit:10;}.g{filter:url(#a);}</style><filter id="a" x="0" y="0" width="155" height="207" filterUnits="userSpaceOnUse"><feOffset dy="3" input="SourceAlpha"/><feGaussianBlur stdDeviation="3" result="b"/><feFlood flood-opacity="0.161"/><feComposite operator="in" in2="b"/><feComposite in="SourceGraphic"/></filter></defs><g transform="translate(-1083 -451)"><g class="g" transform="matrix(1, 0, 0, 1, 1083, 451)"><rect class="a" width="137" height="189" rx="11" transform="translate(9 6)"/></g><text class="b" transform="translate(1100 481)"><tspan x="0" y="0">8</tspan></text><text class="b" transform="matrix(1, 0, 0, -1, 1209, 623.401)"><tspan x="0" y="0">8</tspan></text><g transform="translate(736.099 12)"><rect class="c" width="8" height="8" transform="translate(369.557 471.757) rotate(45)"/><path class="d" d="M369.557,484.061V486.4" transform="translate(0 -0.493)"/></g><g transform="translate(1209 606)"><rect class="c" width="8" height="8" transform="translate(0 8.491) rotate(-45)"/><path class="d" d="M369.557,486.4v-2.337" transform="translate(-363.901 -484.061)"/></g><g transform="translate(1149.978 515.152)"><path class="c" d="M54.525,552.082a66.058,66.058,0,0,0-5.261-9.476,40.183,40.183,0,0,0-7.5-8.392c2.353-.946,4.542-2.831,6.476-4.3,3.41-2.6,5.821-5.891,9.042-8.638,2.1,2.62,3.019,5.763,4.379,8.669a36.235,36.235,0,0,0,2.853,4.993q.868,1.272,1.852,2.484c.4.491,1.744,1.569.561,1.925a29.681,29.681,0,0,0-16.561,12.135" transform="translate(-41.382 -521.272)"/><ellipse class="e" cx="0.534" cy="0.462" rx="0.534" ry="0.462" transform="translate(9.739 8.797)"/><ellipse class="e" cx="0.534" cy="0.462" rx="0.534" ry="0.462" transform="translate(14.819 9.037)"/><path class="f" d="M51.154,596.177a35.544,35.544,0,0,0,2.822,4.511l-.057-.086" transform="translate(-49.597 -586.819)"/><path class="f" d="M38.688,602.848a35.621,35.621,0,0,0,4.338,3.161" transform="translate(-38.688 -592.657)"/><path class="f" d="M190.626,603.483l3.328-4.294.638-.823" transform="translate(-171.644 -588.736)"/><path class="f" d="M190.406,614.793l4.172-2.825c.129-.087.348-.161.425-.036" transform="translate(-171.452 -600.547)"/></g><g transform="translate(1149.978 556.152)"><path class="c" d="M54.525,552.082a66.058,66.058,0,0,0-5.261-9.476,40.183,40.183,0,0,0-7.5-8.392c2.353-.946,4.542-2.831,6.476-4.3,3.41-2.6,5.821-5.891,9.042-8.638,2.1,2.62,3.019,5.763,4.379,8.669a36.235,36.235,0,0,0,2.853,4.993q.868,1.272,1.852,2.484c.4.491,1.744,1.569.561,1.925a29.681,29.681,0,0,0-16.561,12.135" transform="translate(-41.382 -521.272)"/><ellipse class="e" cx="0.534" cy="0.462" rx="0.534" ry="0.462" transform="translate(9.739 8.797)"/><ellipse class="e" cx="0.534" cy="0.462" rx="0.534" ry="0.462" transform="translate(14.819 9.037)"/><path class="f" d="M51.154,596.177a35.544,35.544,0,0,0,2.822,4.511l-.057-.086" transform="translate(-49.597 -586.819)"/><path class="f" d="M38.688,602.848a35.621,35.621,0,0,0,4.338,3.161" transform="translate(-38.688 -592.657)"/><path class="f" d="M190.626,603.483l3.328-4.294.638-.823" transform="translate(-171.644 -588.736)"/><path class="f" d="M190.406,614.793l4.172-2.825c.129-.087.348-.161.425-.036" transform="translate(-171.452 -600.547)"/></g><g transform="translate(1117.463 495.152)"><path class="c" d="M54.647,552.082a66.062,66.062,0,0,1,5.261-9.476,40.182,40.182,0,0,1,7.5-8.392c-2.353-.946-4.542-2.831-6.476-4.3-3.41-2.6-5.821-5.891-9.042-8.638-2.1,2.62-3.019,5.763-4.379,8.669a36.23,36.23,0,0,1-2.853,4.993q-.868,1.272-1.852,2.484c-.4.491-1.744,1.569-.561,1.925A29.681,29.681,0,0,1,58.8,551.478" transform="translate(-41.767 -521.272)"/><ellipse class="e" cx="0.534" cy="0.462" rx="0.534" ry="0.462" transform="translate(15.216 8.797)"/><ellipse class="e" cx="0.534" cy="0.462" rx="0.534" ry="0.462" transform="translate(10.135 9.037)"/><path class="f" d="M53.976,596.177a35.54,35.54,0,0,1-2.822,4.511l.057-.086" transform="translate(-29.511 -586.819)"/><path class="f" d="M43.026,602.848a35.618,35.618,0,0,1-4.338,3.161" transform="translate(-17.004 -592.657)"/><path class="f" d="M194.591,603.483l-3.328-4.294-.638-.823" transform="translate(-187.551 -588.736)"/><path class="f" d="M195,614.793l-4.172-2.825c-.129-.087-.348-.161-.425-.036" transform="translate(-187.936 -600.547)"/></g><g transform="translate(1182.463 495.152)"><path class="c" d="M54.525,552.082a66.058,66.058,0,0,0-5.261-9.476,40.183,40.183,0,0,0-7.5-8.392c2.353-.946,4.542-2.831,6.476-4.3,3.41-2.6,5.821-5.891,9.042-8.638,2.1,2.62,3.019,5.763,4.379,8.669a36.235,36.235,0,0,0,2.853,4.993q.868,1.272,1.852,2.484c.4.491,1.744,1.569.561,1.925a29.681,29.681,0,0,0-16.561,12.135" transform="translate(-41.382 -521.272)"/><ellipse class="e" cx="0.534" cy="0.462" rx="0.534" ry="0.462" transform="translate(9.739 8.797)"/><ellipse class="e" cx="0.534" cy="0.462" rx="0.534" ry="0.462" transform="translate(14.819 9.037)"/><path class="f" d="M51.154,596.177a35.544,35.544,0,0,0,2.822,4.511l-.057-.086" transform="translate(-49.597 -586.819)"/><path class="f" d="M38.688,602.848a35.619,35.619,0,0,0,4.338,3.161" transform="translate(-38.688 -592.657)"/><path class="f" d="M190.626,603.483l3.328-4.294.638-.823" transform="translate(-171.644 -588.736)"/><path class="f" d="M190.406,614.793l4.172-2.825c.129-.087.348-.161.425-.036" transform="translate(-171.452 -600.547)"/></g><g transform="translate(1117.463 536.152)"><path class="c" d="M54.647,552.082a66.062,66.062,0,0,1,5.261-9.476,40.182,40.182,0,0,1,7.5-8.392c-2.353-.946-4.542-2.831-6.476-4.3-3.41-2.6-5.821-5.891-9.042-8.638-2.1,2.62-3.019,5.763-4.379,8.669a36.23,36.23,0,0,1-2.853,4.993q-.868,1.272-1.852,2.484c-.4.491-1.744,1.569-.561,1.925A29.681,29.681,0,0,1,58.8,551.478" transform="translate(-41.767 -521.272)"/><ellipse class="e" cx="0.534" cy="0.462" rx="0.534" ry="0.462" transform="translate(15.216 8.797)"/><ellipse class="e" cx="0.534" cy="0.462" rx="0.534" ry="0.462" transform="translate(10.135 9.037)"/><path class="f" d="M53.976,596.177a35.54,35.54,0,0,1-2.822,4.511l.057-.086" transform="translate(-29.511 -586.819)"/><path class="f" d="M43.026,602.848a35.618,35.618,0,0,1-4.338,3.161" transform="translate(-17.004 -592.657)"/><path class="f" d="M194.591,603.483l-3.328-4.294-.638-.823" transform="translate(-187.551 -588.736)"/><path class="f" d="M195,614.793l-4.172-2.825c-.129-.087-.348-.161-.425-.036" transform="translate(-187.936 -600.547)"/></g><g transform="translate(1117.463 577.152)"><path class="c" d="M54.647,552.082a66.062,66.062,0,0,1,5.261-9.476,40.182,40.182,0,0,1,7.5-8.392c-2.353-.946-4.542-2.831-6.476-4.3-3.41-2.6-5.821-5.891-9.042-8.638-2.1,2.62-3.019,5.763-4.379,8.669a36.23,36.23,0,0,1-2.853,4.993q-.868,1.272-1.852,2.484c-.4.491-1.744,1.569-.561,1.925A29.681,29.681,0,0,1,58.8,551.478" transform="translate(-41.767 -521.272)"/><ellipse class="e" cx="0.534" cy="0.462" rx="0.534" ry="0.462" transform="translate(15.216 8.797)"/><ellipse class="e" cx="0.534" cy="0.462" rx="0.534" ry="0.462" transform="translate(10.135 9.037)"/><path class="f" d="M53.976,596.177a35.54,35.54,0,0,1-2.822,4.511l.057-.086" transform="translate(-29.511 -586.819)"/><path class="f" d="M43.026,602.848a35.618,35.618,0,0,1-4.338,3.161" transform="translate(-17.004 -592.657)"/><path class="f" d="M194.591,603.483l-3.328-4.294-.638-.823" transform="translate(-187.551 -588.736)"/><path class="f" d="M195,614.793l-4.172-2.825c-.129-.087-.348-.161-.425-.036" transform="translate(-187.936 -600.547)"/></g><g transform="translate(1182.463 536.152)"><path class="c" d="M54.525,552.082a66.058,66.058,0,0,0-5.261-9.476,40.183,40.183,0,0,0-7.5-8.392c2.353-.946,4.542-2.831,6.476-4.3,3.41-2.6,5.821-5.891,9.042-8.638,2.1,2.62,3.019,5.763,4.379,8.669a36.235,36.235,0,0,0,2.853,4.993q.868,1.272,1.852,2.484c.4.491,1.744,1.569.561,1.925a29.681,29.681,0,0,0-16.561,12.135" transform="translate(-41.382 -521.272)"/><ellipse class="e" cx="0.534" cy="0.462" rx="0.534" ry="0.462" transform="translate(9.739 8.797)"/><ellipse class="e" cx="0.534" cy="0.462" rx="0.534" ry="0.462" transform="translate(14.819 9.037)"/><path class="f" d="M51.154,596.177a35.544,35.544,0,0,0,2.822,4.511l-.057-.086" transform="translate(-49.597 -586.819)"/><path class="f" d="M38.688,602.848a35.619,35.619,0,0,0,4.338,3.161" transform="translate(-38.688 -592.657)"/><path class="f" d="M190.626,603.483l3.328-4.294.638-.823" transform="translate(-171.644 -588.736)"/><path class="f" d="M190.406,614.793l4.172-2.825c.129-.087.348-.161.425-.036" transform="translate(-171.452 -600.547)"/></g><g transform="translate(1182.463 577.152)"><path class="c" d="M54.525,552.082a66.058,66.058,0,0,0-5.261-9.476,40.183,40.183,0,0,0-7.5-8.392c2.353-.946,4.542-2.831,6.476-4.3,3.41-2.6,5.821-5.891,9.042-8.638,2.1,2.62,3.019,5.763,4.379,8.669a36.235,36.235,0,0,0,2.853,4.993q.868,1.272,1.852,2.484c.4.491,1.744,1.569.561,1.925a29.681,29.681,0,0,0-16.561,12.135" transform="translate(-41.382 -521.272)"/><ellipse class="e" cx="0.534" cy="0.462" rx="0.534" ry="0.462" transform="translate(9.739 8.797)"/><ellipse class="e" cx="0.534" cy="0.462" rx="0.534" ry="0.462" transform="translate(14.819 9.037)"/><path class="f" d="M51.154,596.177a35.544,35.544,0,0,0,2.822,4.511l-.057-.086" transform="translate(-49.597 -586.819)"/><path class="f" d="M38.688,602.848a35.619,35.619,0,0,0,4.338,3.161" transform="translate(-38.688 -592.657)"/><path class="f" d="M190.626,603.483l3.328-4.294.638-.823" transform="translate(-171.644 -588.736)"/><path class="f" d="M190.406,614.793l4.172-2.825c.129-.087.348-.161.425-.036" transform="translate(-171.452 -600.547)"/></g></g></svg>