<svg xmlns="http://www.w3.org/2000/svg" xmlns:xlink="http://www.w3.org/1999/xlink" width="155" height="207" viewBox="0 0 155 207"><defs><style>.a{fill:#fff;}.b,.e{fill:#ff83a8;}.b{font-size:20px;font-family:MyanmarSangamMN, Myanmar Sangam MN;}.c{fill:#d14770;}.d,.g,.h{fill:none;}.d{stroke:#d14770;}.d,.h{stroke-width:0.3px;}.f{fill:#3b86f2;}.g{stroke:#3b86f2;stroke-miterlimit:10;}.h{stroke:#ff83a8;}.i{filter:url(#a);}</style><filter id="a" x="0" y="0" width="155" height="207" filterUnits="userSpaceOnUse"><feOffset dy="3" input="SourceAlpha"/><feGaussianBlur stdDeviation="3" result="b"/><feFlood flood-opacity="0.161"/><feComposite operator="in" in2="b"/><feComposite in="SourceGraphic"/></filter></defs><g transform="translate(-495 -451)"><g class="i" transform="matrix(1, 0, 0, 1, 495, 451)"><rect class="a" width="137" height="189" rx="11" transform="translate(9 6)"/></g><text class="b" transform="translate(512 481)"><tspan x="0" y="0">4</tspan></text><text class="b" transform="translate(632 623.401) rotate(180)"><tspan x="0" y="0">4</tspan></text><g transform="translate(621 606)"><rect class="c" width="8" height="8" transform="translate(0 8.491) rotate(-45)"/><path class="d" d="M369.557,486.4v-2.337" transform="translate(-363.901 -484.061)"/></g><g transform="translate(584.978 556.152)"><path class="e" d="M54.525,521.272a66.057,66.057,0,0,1-5.261,9.476,40.181,40.181,0,0,1-7.5,8.392c2.353.946,4.542,2.831,6.476,4.3,3.41,2.6,5.821,5.891,9.042,8.638,2.1-2.62,3.019-5.763,4.379-8.669a36.238,36.238,0,0,1,2.853-4.993q.868-1.272,1.852-2.484c.4-.491,1.744-1.569.561-1.925a29.681,29.681,0,0,1-16.561-12.135" transform="translate(-41.382 -521.272)"/><ellipse class="f" cx="0.534" cy="0.462" rx="0.534" ry="0.462" transform="translate(9.739 21.09)"/><ellipse class="f" cx="0.534" cy="0.462" rx="0.534" ry="0.462" transform="translate(14.819 20.85)"/><path class="g" d="M51.154,600.688a35.543,35.543,0,0,1,2.822-4.511l-.057.086" transform="translate(-49.597 -579.236)"/><path class="g" d="M38.688,606.009a35.615,35.615,0,0,1,4.338-3.161" transform="translate(-38.688 -585.391)"/><path class="g" d="M190.626,598.367l3.328,4.294.638.823" transform="translate(-171.644 -582.305)"/><path class="g" d="M190.406,611.865l4.172,2.825c.129.087.348.161.425.036" transform="translate(-171.452 -595.301)"/></g><g transform="translate(585.221 511.094)"><path class="e" d="M54.525,552.082a66.058,66.058,0,0,0-5.261-9.476,40.183,40.183,0,0,0-7.5-8.392c2.353-.946,4.542-2.831,6.476-4.3,3.41-2.6,5.821-5.891,9.042-8.638,2.1,2.62,3.019,5.763,4.379,8.669a36.235,36.235,0,0,0,2.853,4.993q.868,1.272,1.852,2.484c.4.491,1.744,1.569.561,1.925a29.681,29.681,0,0,0-16.561,12.135" transform="translate(-41.382 -521.272)"/><ellipse class="f" cx="0.534" cy="0.462" rx="0.534" ry="0.462" transform="translate(9.739 8.797)"/><ellipse class="f" cx="0.534" cy="0.462" rx="0.534" ry="0.462" transform="translate(14.819 9.037)"/><path class="g" d="M51.154,596.177a35.544,35.544,0,0,0,2.822,4.511l-.057-.086" transform="translate(-49.597 -586.819)"/><path class="g" d="M38.688,602.848a35.612,35.612,0,0,0,4.338,3.161" transform="translate(-38.688 -592.657)"/><path class="g" d="M190.626,603.483l3.328-4.294.638-.823" transform="translate(-171.644 -588.736)"/><path class="g" d="M190.406,614.793l4.172-2.825c.129-.087.348-.161.425-.036" transform="translate(-171.452 -600.547)"/></g><g transform="translate(533.463 556.152)"><path class="e" d="M54.647,521.272a66.059,66.059,0,0,0,5.261,9.476,40.183,40.183,0,0,0,7.5,8.392c-2.353.946-4.542,2.831-6.476,4.3-3.41,2.6-5.821,5.891-9.042,8.638-2.1-2.62-3.019-5.763-4.379-8.669a36.233,36.233,0,0,0-2.853-4.993q-.868-1.272-1.852-2.484c-.4-.491-1.744-1.569-.561-1.925A29.681,29.681,0,0,0,58.8,521.876" transform="translate(-41.767 -521.272)"/><ellipse class="f" cx="0.534" cy="0.462" rx="0.534" ry="0.462" transform="translate(15.216 21.09)"/><ellipse class="f" cx="0.534" cy="0.462" rx="0.534" ry="0.462" transform="translate(10.135 20.85)"/><path class="g" d="M53.976,600.688a35.548,35.548,0,0,0-2.822-4.511l.057.086" transform="translate(-29.511 -579.236)"/><path class="g" d="M43.026,606.009a35.612,35.612,0,0,0-4.338-3.161" transform="translate(-17.004 -585.391)"/><path class="g" d="M194.591,598.367l-3.328,4.294-.638.823" transform="translate(-187.551 -582.305)"/><path class="g" d="M195,611.865l-4.172,2.825c-.129.087-.348.161-.425.036" transform="translate(-187.936 -595.301)"/></g><g transform="translate(533.463 511.152)"><path class="e" d="M54.647,552.082a66.062,66.062,0,0,1,5.261-9.476,40.182,40.182,0,0,1,7.5-8.392c-2.353-.946-4.542-2.831-6.476-4.3-3.41-2.6-5.821-5.891-9.042-8.638-2.1,2.62-3.019,5.763-4.379,8.669a36.23,36.23,0,0,1-2.853,4.993q-.868,1.272-1.852,2.484c-.4.491-1.744,1.569-.561,1.925A29.681,29.681,0,0,1,58.8,551.478" transform="translate(-41.767 -521.272)"/><ellipse class="f" cx="0.534" cy="0.462" rx="0.534" ry="0.462" transform="translate(15.216 8.797)"/><ellipse class="f" cx="0.534" cy="0.462" rx="0.534" ry="0.462" transform="translate(10.135 9.037)"/><path class="g" d="M53.976,596.177a35.54,35.54,0,0,1-2.822,4.511l.057-.086" transform="translate(-29.511 -586.819)"/><path class="g" d="M43.026,602.848a35.619,35.619,0,0,1-4.338,3.161" transform="translate(-17.004 -592.657)"/><path class="g" d="M194.591,603.483l-3.328-4.294-.638-.823" transform="translate(-187.551 -588.736)"/><path class="g" d="M195,614.793l-4.172-2.825c-.129-.087-.348-.161-.425-.036" transform="translate(-187.936 -600.547)"/></g><g transform="translate(148.099 12)"><rect class="e" width="8" height="8" transform="translate(369.557 471.757) rotate(45)"/><path class="h" d="M369.557,484.061V486.4" transform="translate(0 -0.493)"/></g><g transform="translate(621 606)"><rect class="e" width="8" height="8" transform="translate(0 8.491) rotate(-45)"/><path class="h" d="M369.557,486.4v-2.337" transform="translate(-363.901 -484.061)"/></g></g></svg>