<svg xmlns="http://www.w3.org/2000/svg" xmlns:xlink="http://www.w3.org/1999/xlink" width="155" height="207" viewBox="0 0 155 207"><defs><style>.a,.g{fill:#fff;}.b,.c{fill:#ff83a8;}.b{font-size:20px;font-family:MyanmarSangamMN, Myanmar Sangam MN;}.d,.e{fill:none;}.d{stroke:#ff83a8;stroke-width:0.3px;}.e,.g{stroke:#3b86f2;stroke-miterlimit:10;}.f{fill:#3b86f2;}.h{filter:url(#a);}</style><filter id="a" x="0" y="0" width="155" height="207" filterUnits="userSpaceOnUse"><feOffset dy="3" input="SourceAlpha"/><feGaussianBlur stdDeviation="3" result="b"/><feFlood flood-opacity="0.161"/><feComposite operator="in" in2="b"/><feComposite in="SourceGraphic"/></filter></defs><g transform="translate(-1671 -451)"><g class="h" transform="matrix(1, 0, 0, 1, 1671, 451)"><rect class="a" width="137" height="189" rx="11" transform="translate(9 6)"/></g><text class="b" transform="translate(1686 481)"><tspan x="0" y="0">Q</tspan></text><text class="b" transform="translate(1810 623.401) rotate(180)"><tspan x="0" y="0">Q</tspan></text><g transform="translate(1324.099 12)"><rect class="c" width="8" height="8" transform="translate(369.557 471.757) rotate(45)"/><path class="d" d="M369.557,484.061V486.4" transform="translate(0 -0.493)"/></g><g transform="translate(1797 606)"><rect class="c" width="8" height="8" transform="translate(0 8.491) rotate(-45)"/><path class="d" d="M369.557,486.4v-2.337" transform="translate(-363.901 -484.061)"/></g><g transform="translate(1670.54 18.28)"><path class="c" d="M68.437,585.679a138.113,138.113,0,0,0-11-19.81,84,84,0,0,0-15.673-17.544c4.919-1.978,9.5-5.918,13.537-9,7.128-5.429,12.168-12.315,18.9-18.057,4.4,5.477,6.312,12.048,9.153,18.122a75.767,75.767,0,0,0,5.964,10.439q1.815,2.66,3.871,5.192c.834,1.026,3.645,3.28,1.172,4.025C79.7,563.463,67.174,572.641,59.74,584.414" transform="translate(-9.832 -39.236)"/><path class="e" d="M59.37,580.526A138.126,138.126,0,0,0,46.1,562.159,84,84,0,0,0,28.46,546.6c4.65-2.548,8.727-7,12.375-10.538,6.434-6.236,10.623-13.67,16.627-20.171,5.016,4.917,7.7,11.215,11.237,16.909a75.755,75.755,0,0,0,7.159,9.658q2.118,2.426,4.459,4.7c.949.92,4.008,2.825,1.641,3.858-14.034,6.123-25.384,16.722-31.37,29.293" transform="translate(0 -35.259)"/><ellipse class="f" cx="1.116" cy="0.965" rx="1.116" ry="0.965" transform="translate(51.49 500.425)"/><ellipse class="f" cx="1.116" cy="0.965" rx="1.116" ry="0.965" transform="translate(62.11 500.927)"/><path class="e" d="M51.154,596.177a74.3,74.3,0,0,0,5.9,9.431l-.119-.181" transform="translate(-16.767 -94.579)"/><path class="e" d="M38.688,602.848a74.427,74.427,0,0,0,9.069,6.609" transform="translate(-7.557 -99.508)"/><path class="e" d="M190.626,609.062l6.957-8.976,1.333-1.72" transform="translate(-119.814 -96.197)"/><path class="e" d="M190.406,617.986l8.722-5.906c.269-.182.728-.337.889-.076" transform="translate(-119.652 -106.17)"/><path class="g" d="M106.021,211.891a5.483,5.483,0,0,0-1.424-2.229,10.51,10.51,0,0,0-6.792-2.85,6.657,6.657,0,0,0-2.538.224A4.863,4.863,0,0,0,92.11,209.3c-.756,1.429-.364,2.487-.144,3.75h0a2.755,2.755,0,0,0,.338.514,2.631,2.631,0,0,0,.665.491,21.59,21.59,0,0,0,5.714,2.287,7.674,7.674,0,0,0,6.015-.764,3.388,3.388,0,0,0,1.079-1.036,3.317,3.317,0,0,0,.244-2.651Z" transform="matrix(0.961, 0.276, -0.276, 0.961, 23.097, 249.674)"/></g><g transform="translate(1738 551.994)"><path class="c" d="M68.691,521.272a138.112,138.112,0,0,0,11,19.81,84,84,0,0,0,15.673,17.544c-4.919,1.978-9.5,5.918-13.537,9-7.128,5.429-12.168,12.315-18.9,18.057-4.4-5.477-6.312-12.048-9.153-18.122a75.761,75.761,0,0,0-5.964-10.439q-1.815-2.66-3.871-5.192c-.834-1.026-3.645-3.28-1.172-4.025,14.661-4.417,27.187-13.595,34.621-25.368" transform="translate(-41.767 -521.272)"/><path class="e" d="M51.928,515.889A138.122,138.122,0,0,0,65.2,534.256a84,84,0,0,0,17.642,15.562c-4.65,2.548-8.727,7-12.375,10.538-6.434,6.236-10.623,13.67-16.627,20.171-5.016-4.917-7.7-11.215-11.237-16.909a75.752,75.752,0,0,0-7.159-9.658q-2.118-2.426-4.459-4.7c-.949-.92-4.008-2.825-1.641-3.858,14.034-6.123,25.384-16.722,31.37-29.293" transform="translate(-25.769 -514.713)"/><ellipse class="f" cx="1.116" cy="0.965" rx="1.116" ry="0.965" transform="translate(31.808 44.087)"/><ellipse class="f" cx="1.116" cy="0.965" rx="1.116" ry="0.965" transform="translate(21.188 43.586)"/><path class="e" d="M57.053,605.608a74.3,74.3,0,0,0-5.9-9.431l.119.181" transform="translate(-5.911 -560.763)"/><path class="e" d="M47.757,609.457a74.422,74.422,0,0,0-9.069-6.609" transform="translate(6.641 -566.354)"/><path class="e" d="M198.916,598.367l-6.957,8.976-1.333,1.72" transform="translate(-184.198 -564.789)"/><path class="e" d="M200.017,611.865l-8.722,5.906c-.269.182-.728.337-.889.076" transform="translate(-185.242 -577.238)"/><path class="g" d="M14.355,5.108a5.483,5.483,0,0,0-1.424-2.229A10.51,10.51,0,0,0,6.139.028,6.657,6.657,0,0,0,3.6.252,4.863,4.863,0,0,0,.444,2.514C-.312,3.943.079,5,.3,6.264h0a2.754,2.754,0,0,0,.338.514,2.632,2.632,0,0,0,.665.491A21.589,21.589,0,0,0,7.016,9.557a7.674,7.674,0,0,0,6.015-.764A3.388,3.388,0,0,0,14.11,7.757a3.317,3.317,0,0,0,.245-2.649Z" transform="matrix(-0.961, -0.276, 0.276, -0.961, 31.315, 72.729)"/></g></g></svg>