<svg xmlns="http://www.w3.org/2000/svg" xmlns:xlink="http://www.w3.org/1999/xlink" width="155" height="207" viewBox="0 0 155 207"><defs><style>.a{fill:#fff;}.b,.c{fill:#ff83a8;}.b{font-size:20px;font-family:MyanmarSangamMN, Myanmar Sangam MN;}.d,.f{fill:none;}.d{stroke:#ff83a8;stroke-width:0.3px;}.e{fill:#3b86f2;}.f{stroke:#3b86f2;stroke-miterlimit:10;}.g{filter:url(#a);}</style><filter id="a" x="0" y="0" width="155" height="207" filterUnits="userSpaceOnUse"><feOffset dy="3" input="SourceAlpha"/><feGaussianBlur stdDeviation="3" result="b"/><feFlood flood-opacity="0.161"/><feComposite operator="in" in2="b"/><feComposite in="SourceGraphic"/></filter></defs><g transform="translate(-1230 -248)"><g class="g" transform="matrix(1, 0, 0, 1, 1230, 248)"><rect class="a" width="137" height="189" rx="11" transform="translate(9 6)"/></g><text class="b" transform="translate(1247 278)"><tspan x="0" y="0">9</tspan></text><text class="b" transform="translate(1366.748 420.401) rotate(180)"><tspan x="0" y="0">9</tspan></text><g transform="translate(1246.099 281)"><path class="c" d="M17.217,17.422a3.387,3.387,0,0,0-3.239-1.845,3.176,3.176,0,0,0-3.137,3.214A3.241,3.241,0,0,0,11.7,21h0l.007.007q.053.057.109.112l5.3,5.427,5.3-5.427c.037-.036.073-.074.109-.112L22.53,21h0a3.241,3.241,0,0,0,.861-2.207,3.176,3.176,0,0,0-3.137-3.214,3.3,3.3,0,0,0-3.036,1.845" transform="translate(-10.841 -14.142)"/><path class="d" d="M373.87,490.961V488.62" transform="translate(-367.504 -475.621)"/></g><g transform="translate(1355.099 405)"><path class="c" d="M17.217,24.7a3.387,3.387,0,0,1-3.239,1.845,3.176,3.176,0,0,1-3.137-3.214,3.241,3.241,0,0,1,.861-2.207h0l.007-.007q.053-.057.109-.112l5.3-5.427L22.414,21c.037.036.073.074.109.112l.007.007h0a3.241,3.241,0,0,1,.861,2.207,3.176,3.176,0,0,1-3.137,3.214,3.3,3.3,0,0,1-3.037-1.84" transform="translate(-10.841 -15.577)"/><path class="d" d="M373.87,488.621v2.341" transform="translate(-367.504 -491.56)"/></g><g transform="translate(1297 296)"><path class="c" d="M344.853,248.1a6.208,6.208,0,0,1,7.021.48,5.451,5.451,0,0,1,1.8,2.322,6.887,6.887,0,0,1-1.148,6.611c-1.217,1.286-3.278,1.918-4.883,2.571-2.05.833-4.159,1.513-6.279,2.143-1.5.446-3.008.87-4.509,1.316-.668.2-1.387.7-1.892-.04s-.26-1.874-.342-2.694c-.282-2.849-1.293-5.593-1.328-8.471a11.732,11.732,0,0,1,.14-1.828,9.444,9.444,0,0,1,2.081-5.063,6.392,6.392,0,0,1,7.69-1.2,3.3,3.3,0,0,1,1.606,1.8,4.466,4.466,0,0,1-.169,2.351" transform="translate(-332.996 -239.834)"/><ellipse class="e" cx="0.393" cy="0.874" rx="0.393" ry="0.874" transform="translate(2.46 7.177) rotate(-45)"/><path class="f" d="M330.617,340.088a3.071,3.071,0,0,0,1.054,1.262,2.06,2.06,0,0,0,1.7.047,6.108,6.108,0,0,0,1.494-.916" transform="translate(-330.617 -325.623)"/><path class="f" d="M373.09,216.476q-.413-1-.812-2.006" transform="translate(-367.605 -214.094)"/><path class="f" d="M414.7,213.772c.224-.859,0-1.776.14-2.653" transform="translate(-405.268 -211.119)"/><path class="f" d="M436.559,241.778a16.217,16.217,0,0,1,2.482-2.217" transform="translate(-424.677 -236.371)"/><path class="f" d="M475.191,260.146a12.047,12.047,0,0,1,2.053-1.918" transform="translate(-458.976 -252.944)"/><path class="f" d="M508.922,287.633a13.081,13.081,0,0,1,2.427-1.819.873.873,0,0,1,.574-.167" transform="translate(-488.924 -277.281)"/><path class="f" d="M510.526,342.266a17.565,17.565,0,0,1,3.242.544" transform="translate(-490.348 -327.557)"/></g><g transform="translate(1297 333)"><path class="c" d="M344.853,248.1a6.208,6.208,0,0,1,7.021.48,5.451,5.451,0,0,1,1.8,2.322,6.887,6.887,0,0,1-1.148,6.611c-1.217,1.286-3.278,1.918-4.883,2.571-2.05.833-4.159,1.513-6.279,2.143-1.5.446-3.008.87-4.509,1.316-.668.2-1.387.7-1.892-.04s-.26-1.874-.342-2.694c-.282-2.849-1.293-5.593-1.328-8.471a11.732,11.732,0,0,1,.14-1.828,9.444,9.444,0,0,1,2.081-5.063,6.392,6.392,0,0,1,7.69-1.2,3.3,3.3,0,0,1,1.606,1.8,4.466,4.466,0,0,1-.169,2.351" transform="translate(-332.996 -239.834)"/><ellipse class="e" cx="0.393" cy="0.874" rx="0.393" ry="0.874" transform="translate(2.46 7.177) rotate(-45)"/><path class="f" d="M330.617,340.088a3.071,3.071,0,0,0,1.054,1.262,2.06,2.06,0,0,0,1.7.047,6.108,6.108,0,0,0,1.494-.916" transform="translate(-330.617 -325.623)"/><path class="f" d="M373.09,216.476q-.413-1-.812-2.006" transform="translate(-367.605 -214.094)"/><path class="f" d="M414.7,213.772c.224-.859,0-1.776.14-2.653" transform="translate(-405.268 -211.119)"/><path class="f" d="M436.559,241.778a16.217,16.217,0,0,1,2.482-2.217" transform="translate(-424.677 -236.371)"/><path class="f" d="M475.191,260.146a12.047,12.047,0,0,1,2.053-1.918" transform="translate(-458.976 -252.944)"/><path class="f" d="M508.922,287.633a13.081,13.081,0,0,1,2.427-1.819.873.873,0,0,1,.574-.167" transform="translate(-488.924 -277.281)"/><path class="f" d="M510.526,342.266a17.565,17.565,0,0,1,3.242.544" transform="translate(-490.348 -327.557)"/></g><g transform="translate(1297 370)"><path class="c" d="M344.853,248.1a6.208,6.208,0,0,1,7.021.48,5.451,5.451,0,0,1,1.8,2.322,6.887,6.887,0,0,1-1.148,6.611c-1.217,1.286-3.278,1.918-4.883,2.571-2.05.833-4.159,1.513-6.279,2.143-1.5.446-3.008.87-4.509,1.316-.668.2-1.387.7-1.892-.04s-.26-1.874-.342-2.694c-.282-2.849-1.293-5.593-1.328-8.471a11.732,11.732,0,0,1,.14-1.828,9.444,9.444,0,0,1,2.081-5.063,6.392,6.392,0,0,1,7.69-1.2,3.3,3.3,0,0,1,1.606,1.8,4.466,4.466,0,0,1-.169,2.351" transform="translate(-332.996 -239.834)"/><ellipse class="e" cx="0.393" cy="0.874" rx="0.393" ry="0.874" transform="translate(2.46 7.177) rotate(-45)"/><path class="f" d="M330.617,340.088a3.071,3.071,0,0,0,1.054,1.262,2.06,2.06,0,0,0,1.7.047,6.108,6.108,0,0,0,1.494-.916" transform="translate(-330.617 -325.623)"/><path class="f" d="M373.09,216.476q-.413-1-.812-2.006" transform="translate(-367.605 -214.094)"/><path class="f" d="M414.7,213.772c.224-.859,0-1.776.14-2.653" transform="translate(-405.268 -211.119)"/><path class="f" d="M436.559,241.778a16.217,16.217,0,0,1,2.482-2.217" transform="translate(-424.677 -236.371)"/><path class="f" d="M475.191,260.146a12.047,12.047,0,0,1,2.053-1.918" transform="translate(-458.976 -252.944)"/><path class="f" d="M508.922,287.633a13.081,13.081,0,0,1,2.427-1.819.873.873,0,0,1,.574-.167" transform="translate(-488.924 -277.281)"/><path class="f" d="M510.526,342.266a17.565,17.565,0,0,1,3.242.544" transform="translate(-490.348 -327.557)"/></g><g transform="translate(1266 311)"><path class="c" d="M342.5,248.1a6.208,6.208,0,0,0-7.021.48,5.452,5.452,0,0,0-1.8,2.322,6.887,6.887,0,0,0,1.148,6.611c1.217,1.286,3.278,1.918,4.883,2.571,2.05.833,4.159,1.513,6.279,2.143,1.5.446,3.008.87,4.509,1.316.668.2,1.387.7,1.892-.04s.26-1.874.342-2.694c.282-2.849,1.293-5.593,1.328-8.471a11.732,11.732,0,0,0-.14-1.828,9.444,9.444,0,0,0-2.081-5.063,6.392,6.392,0,0,0-7.69-1.2,3.3,3.3,0,0,0-1.606,1.8,4.466,4.466,0,0,0,.169,2.351" transform="translate(-333.296 -243.461)"/><ellipse class="e" cx="0.393" cy="0.874" rx="0.393" ry="0.874" transform="translate(17.367 4.785) rotate(-135)"/><path class="f" d="M334.869,340.088a3.071,3.071,0,0,1-1.054,1.262,2.06,2.06,0,0,1-1.7.047,6.109,6.109,0,0,1-1.494-.916" transform="translate(-313.805 -329.251)"/></g><g transform="translate(1266 350)"><path class="c" d="M342.5,248.1a6.208,6.208,0,0,0-7.021.48,5.452,5.452,0,0,0-1.8,2.322,6.887,6.887,0,0,0,1.148,6.611c1.217,1.286,3.278,1.918,4.883,2.571,2.05.833,4.159,1.513,6.279,2.143,1.5.446,3.008.87,4.509,1.316.668.2,1.387.7,1.892-.04s.26-1.874.342-2.694c.282-2.849,1.293-5.593,1.328-8.471a11.732,11.732,0,0,0-.14-1.828,9.444,9.444,0,0,0-2.081-5.063,6.392,6.392,0,0,0-7.69-1.2,3.3,3.3,0,0,0-1.606,1.8,4.466,4.466,0,0,0,.169,2.351" transform="translate(-333.296 -243.461)"/><ellipse class="e" cx="0.393" cy="0.874" rx="0.393" ry="0.874" transform="translate(17.367 4.785) rotate(-135)"/><path class="f" d="M334.869,340.088a3.071,3.071,0,0,1-1.054,1.262,2.06,2.06,0,0,1-1.7.047,6.109,6.109,0,0,1-1.494-.916" transform="translate(-313.805 -329.251)"/></g><g transform="translate(1266 386)"><path class="c" d="M342.5,248.1a6.208,6.208,0,0,0-7.021.48,5.452,5.452,0,0,0-1.8,2.322,6.887,6.887,0,0,0,1.148,6.611c1.217,1.286,3.278,1.918,4.883,2.571,2.05.833,4.159,1.513,6.279,2.143,1.5.446,3.008.87,4.509,1.316.668.2,1.387.7,1.892-.04s.26-1.874.342-2.694c.282-2.849,1.293-5.593,1.328-8.471a11.732,11.732,0,0,0-.14-1.828,9.444,9.444,0,0,0-2.081-5.063,6.392,6.392,0,0,0-7.69-1.2,3.3,3.3,0,0,0-1.606,1.8,4.466,4.466,0,0,0,.169,2.351" transform="translate(-333.296 -243.461)"/><ellipse class="e" cx="0.393" cy="0.874" rx="0.393" ry="0.874" transform="translate(17.367 4.785) rotate(-135)"/><path class="f" d="M334.869,340.088a3.071,3.071,0,0,1-1.054,1.262,2.06,2.06,0,0,1-1.7.047,6.109,6.109,0,0,1-1.494-.916" transform="translate(-313.805 -329.251)"/></g><g transform="translate(1328 311)"><path class="c" d="M344.853,248.1a6.208,6.208,0,0,1,7.021.48,5.451,5.451,0,0,1,1.8,2.322,6.887,6.887,0,0,1-1.148,6.611c-1.217,1.286-3.278,1.918-4.883,2.571-2.05.833-4.159,1.513-6.279,2.143-1.5.446-3.008.87-4.509,1.316-.668.2-1.387.7-1.892-.04s-.26-1.874-.342-2.694c-.282-2.849-1.293-5.593-1.328-8.471a11.732,11.732,0,0,1,.14-1.828,9.444,9.444,0,0,1,2.081-5.063,6.392,6.392,0,0,1,7.69-1.2,3.3,3.3,0,0,1,1.606,1.8,4.466,4.466,0,0,1-.169,2.351" transform="translate(-332.996 -243.461)"/><ellipse class="e" cx="0.393" cy="0.874" rx="0.393" ry="0.874" transform="translate(2.46 3.549) rotate(-45)"/><path class="f" d="M330.617,340.088a3.071,3.071,0,0,0,1.054,1.262,2.06,2.06,0,0,0,1.7.047,6.108,6.108,0,0,0,1.494-.916" transform="translate(-330.617 -329.251)"/></g><g transform="translate(1328 350)"><path class="c" d="M344.853,248.1a6.208,6.208,0,0,1,7.021.48,5.451,5.451,0,0,1,1.8,2.322,6.887,6.887,0,0,1-1.148,6.611c-1.217,1.286-3.278,1.918-4.883,2.571-2.05.833-4.159,1.513-6.279,2.143-1.5.446-3.008.87-4.509,1.316-.668.2-1.387.7-1.892-.04s-.26-1.874-.342-2.694c-.282-2.849-1.293-5.593-1.328-8.471a11.732,11.732,0,0,1,.14-1.828,9.444,9.444,0,0,1,2.081-5.063,6.392,6.392,0,0,1,7.69-1.2,3.3,3.3,0,0,1,1.606,1.8,4.466,4.466,0,0,1-.169,2.351" transform="translate(-332.996 -243.461)"/><ellipse class="e" cx="0.393" cy="0.874" rx="0.393" ry="0.874" transform="translate(2.46 3.549) rotate(-45)"/><path class="f" d="M330.617,340.088a3.071,3.071,0,0,0,1.054,1.262,2.06,2.06,0,0,0,1.7.047,6.108,6.108,0,0,0,1.494-.916" transform="translate(-330.617 -329.251)"/></g><g transform="translate(1328 386)"><path class="c" d="M344.853,248.1a6.208,6.208,0,0,1,7.021.48,5.451,5.451,0,0,1,1.8,2.322,6.887,6.887,0,0,1-1.148,6.611c-1.217,1.286-3.278,1.918-4.883,2.571-2.05.833-4.159,1.513-6.279,2.143-1.5.446-3.008.87-4.509,1.316-.668.2-1.387.7-1.892-.04s-.26-1.874-.342-2.694c-.282-2.849-1.293-5.593-1.328-8.471a11.732,11.732,0,0,1,.14-1.828,9.444,9.444,0,0,1,2.081-5.063,6.392,6.392,0,0,1,7.69-1.2,3.3,3.3,0,0,1,1.606,1.8,4.466,4.466,0,0,1-.169,2.351" transform="translate(-332.996 -243.461)"/><ellipse class="e" cx="0.393" cy="0.874" rx="0.393" ry="0.874" transform="translate(2.46 3.549) rotate(-45)"/><path class="f" d="M330.617,340.088a3.071,3.071,0,0,0,1.054,1.262,2.06,2.06,0,0,0,1.7.047,6.108,6.108,0,0,0,1.494-.916" transform="translate(-330.617 -329.251)"/></g></g></svg>