<svg xmlns="http://www.w3.org/2000/svg" xmlns:xlink="http://www.w3.org/1999/xlink" width="155" height="207" viewBox="0 0 155 207"><defs><style>.a{fill:#fff;}.b,.c{fill:#ff83a8;}.b{font-size:20px;font-family:MyanmarSangamMN, Myanmar Sangam MN;}.d,.f{fill:none;}.d{stroke:#ff83a8;stroke-width:0.3px;}.e{fill:#3b86f2;}.f{stroke:#3b86f2;stroke-miterlimit:10;}.g{filter:url(#a);}</style><filter id="a" x="0" y="0" width="155" height="207" filterUnits="userSpaceOnUse"><feOffset dy="3" input="SourceAlpha"/><feGaussianBlur stdDeviation="3" result="b"/><feFlood flood-opacity="0.161"/><feComposite operator="in" in2="b"/><feComposite in="SourceGraphic"/></filter></defs><g transform="translate(-54 -248)"><g class="g" transform="matrix(1, 0, 0, 1, 54, 248)"><rect class="a" width="137" height="189" rx="11" transform="translate(9 6)"/></g><text class="b" transform="translate(69 278)"><tspan x="0" y="0">A</tspan></text><g transform="translate(70.099 281)"><path class="c" d="M17.217,17.422a3.387,3.387,0,0,0-3.239-1.845,3.176,3.176,0,0,0-3.137,3.214A3.241,3.241,0,0,0,11.7,21h0l.007.007q.053.057.109.112l5.3,5.427,5.3-5.427c.037-.036.073-.074.109-.112L22.53,21h0a3.241,3.241,0,0,0,.861-2.207,3.176,3.176,0,0,0-3.137-3.214,3.3,3.3,0,0,0-3.036,1.845" transform="translate(-10.841 -14.142)"/><path class="d" d="M373.87,490.961V488.62" transform="translate(-367.504 -475.621)"/></g><text class="b" transform="matrix(1, 0, 0, -1, 178, 420.401)"><tspan x="0" y="0">A</tspan></text><g transform="translate(179.099 405)"><path class="c" d="M17.217,24.7a3.387,3.387,0,0,1-3.239,1.845,3.176,3.176,0,0,1-3.137-3.214,3.241,3.241,0,0,1,.861-2.207h0l.007-.007q.053-.057.109-.112l5.3-5.427L22.414,21c.037.036.073.074.109.112l.007.007h0a3.241,3.241,0,0,1,.861,2.207,3.176,3.176,0,0,1-3.137,3.214,3.3,3.3,0,0,1-3.037-1.84" transform="translate(-10.841 -15.577)"/><path class="d" d="M373.87,488.621v2.341" transform="translate(-367.504 -491.56)"/></g><g transform="translate(-238.044 92.381)"><path class="c" d="M374.607,260.033c7.46-4.95,18.015-3.757,25.1,1.717a19.486,19.486,0,0,1,6.446,8.3c2.752,7.24,1.325,17.9-4.1,23.635-4.352,4.6-11.717,6.858-17.456,9.191-7.328,2.979-14.867,5.407-22.445,7.661-5.365,1.6-10.752,3.112-16.118,4.7-2.389.709-4.958,2.5-6.763-.143-1.769-2.587-.931-6.7-1.221-9.632-1.008-10.183-4.622-19.994-4.748-30.283a41.943,41.943,0,0,1,.5-6.535c.953-6.552,2.987-13.2,7.438-18.1a22.851,22.851,0,0,1,27.492-4.282c2.552,1.477,4.9,3.619,5.741,6.446.808,2.727.1,5.647-.6,8.4" transform="translate(-3.746 -19.375)"/><ellipse class="e" cx="1.406" cy="3.124" rx="1.406" ry="3.124" transform="translate(337.272 236.774) rotate(-45)"/><path class="f" d="M330.617,340.088c.976,1.728,2.035,3.542,3.768,4.51a7.366,7.366,0,0,0,6.089.168,21.838,21.838,0,0,0,5.342-3.273" transform="translate(-2.14 -77.26)"/><path class="f" d="M375.18,221.642q-1.475-3.576-2.9-7.172" transform="translate(-27.098 -2.007)"/><path class="f" d="M414.7,220.6c.8-3.072,0-6.349.5-9.483" transform="translate(-52.51)"/><path class="f" d="M436.559,247.488a57.965,57.965,0,0,1,8.872-7.927" transform="translate(-65.606 -17.039)"/><path class="f" d="M475.191,265.084a43.05,43.05,0,0,1,7.338-6.856" transform="translate(-88.749 -28.221)"/><path class="f" d="M508.922,292.766a46.767,46.767,0,0,1,8.674-6.5,3.122,3.122,0,0,1,2.05-.6" transform="translate(-108.956 -44.642)"/><path class="f" d="M510.526,342.266a62.778,62.778,0,0,1,11.591,1.947" transform="translate(-109.917 -78.565)"/></g></g></svg>