<svg xmlns="http://www.w3.org/2000/svg" xmlns:xlink="http://www.w3.org/1999/xlink" width="155" height="207" viewBox="0 0 155 207"><defs><style>.a,.g{fill:#fff;}.b,.c{fill:#ff83a8;}.b{font-size:20px;font-family:MyanmarSangamMN, Myanmar Sangam MN;}.d,.f{fill:none;}.d{stroke:#ff83a8;stroke-width:0.3px;}.e{fill:#3b86f2;}.f,.g{stroke:#3b86f2;stroke-miterlimit:10;}.h{filter:url(#a);}</style><filter id="a" x="0" y="0" width="155" height="207" filterUnits="userSpaceOnUse"><feOffset dy="3" input="SourceAlpha"/><feGaussianBlur stdDeviation="3" result="b"/><feFlood flood-opacity="0.161"/><feComposite operator="in" in2="b"/><feComposite in="SourceGraphic"/></filter></defs><g transform="translate(-1671 -248)"><g class="h" transform="matrix(1, 0, 0, 1, 1671, 248)"><rect class="a" width="137" height="189" rx="11" transform="translate(9 6)"/></g><text class="b" transform="translate(1686 278)"><tspan x="0" y="0">Q</tspan></text><text class="b" transform="translate(1810 420.401) rotate(180)"><tspan x="0" y="0">Q</tspan></text><g transform="translate(1687.099 281)"><path class="c" d="M17.217,17.422a3.387,3.387,0,0,0-3.239-1.845,3.176,3.176,0,0,0-3.137,3.214A3.241,3.241,0,0,0,11.7,21h0l.007.007q.053.057.109.112l5.3,5.427,5.3-5.427c.037-.036.073-.074.109-.112L22.53,21h0a3.241,3.241,0,0,0,.861-2.207,3.176,3.176,0,0,0-3.137-3.214,3.3,3.3,0,0,0-3.036,1.845" transform="translate(-10.841 -14.142)"/><path class="d" d="M373.87,490.961V488.62" transform="translate(-367.504 -475.621)"/></g><g transform="translate(1796.099 405)"><path class="c" d="M17.217,24.7a3.387,3.387,0,0,1-3.239,1.845,3.176,3.176,0,0,1-3.137-3.214,3.241,3.241,0,0,1,.861-2.207h0l.007-.007q.053-.057.109-.112l5.3-5.427L22.414,21c.037.036.073.074.109.112l.007.007h0a3.241,3.241,0,0,1,.861,2.207,3.176,3.176,0,0,1-3.137,3.214,3.3,3.3,0,0,1-3.037-1.84" transform="translate(-10.841 -15.577)"/><path class="d" d="M373.87,488.621v2.341" transform="translate(-367.504 -491.56)"/></g><g transform="translate(1379.956 68.013)"><path class="c" d="M366.844,256.919c6.058-4.02,14.63-3.051,20.383,1.394a15.825,15.825,0,0,1,5.235,6.742c2.235,5.88,1.076,14.535-3.333,19.193-3.534,3.734-9.515,5.569-14.176,7.464-5.951,2.419-12.073,4.391-18.227,6.222-4.356,1.3-8.732,2.527-13.089,3.821-1.94.576-4.026,2.028-5.492-.116-1.436-2.1-.756-5.44-.991-7.822-.819-8.269-3.753-16.236-3.855-24.592a34.058,34.058,0,0,1,.406-5.307c.774-5.32,2.426-10.717,6.04-14.7a18.557,18.557,0,0,1,22.325-3.478,9.589,9.589,0,0,1,4.663,5.235c.656,2.215.084,4.586-.49,6.824" transform="translate(-4.217 -21.812)"/><ellipse class="e" cx="1.142" cy="2.537" rx="1.142" ry="2.537" transform="translate(335.35 231.953) rotate(-45)"/><path class="f" d="M330.617,340.088a8.915,8.915,0,0,0,3.06,3.662,5.981,5.981,0,0,0,4.945.136,17.735,17.735,0,0,0,4.338-2.658" transform="translate(-2.41 -86.978)"/><path class="f" d="M517.631,285.662" transform="translate(-122.66 -50.257)"/><path class="g" d="M106.021,211.891a5.483,5.483,0,0,0-1.424-2.229,10.51,10.51,0,0,0-6.792-2.85,6.657,6.657,0,0,0-2.538.224A4.863,4.863,0,0,0,92.11,209.3c-.756,1.429-.364,2.487-.144,3.75h0a2.755,2.755,0,0,0,.338.514,2.631,2.631,0,0,0,.665.491,21.59,21.59,0,0,0,5.714,2.287,7.674,7.674,0,0,0,6.015-.764,3.388,3.388,0,0,0,1.079-1.036,3.317,3.317,0,0,0,.244-2.651Z" transform="translate(256.205 8.313) rotate(1)"/></g><g transform="translate(1724.163 343.679)"><path class="c" d="M360.023,289.314c-6.058,4.02-14.63,3.051-20.383-1.394a15.825,15.825,0,0,1-5.235-6.742c-2.235-5.88-1.076-14.535,3.333-19.193,3.534-3.734,9.515-5.569,14.176-7.464,5.951-2.419,12.073-4.391,18.227-6.222,4.356-1.3,8.732-2.527,13.089-3.821,1.94-.576,4.026-2.028,5.492.116,1.436,2.1.756,5.44.991,7.822.819,8.269,3.753,16.236,3.855,24.592a34.061,34.061,0,0,1-.406,5.307c-.774,5.32-2.426,10.717-6.04,14.7A18.557,18.557,0,0,1,364.8,300.49a9.589,9.589,0,0,1-4.663-5.235c-.656-2.215-.084-4.586.49-6.824" transform="translate(-327.679 -243.461)"/><ellipse class="e" cx="1.142" cy="2.537" rx="1.142" ry="2.537" transform="translate(59.622 49.006) rotate(135)"/><path class="f" d="M342.96,344.353a8.915,8.915,0,0,0-3.06-3.662,5.981,5.981,0,0,0-4.945-.136,17.735,17.735,0,0,0-4.338,2.658" transform="translate(-276.196 -316.504)"/><path class="f" d="M517.631,285.662" transform="translate(-517.631 -240.107)"/><path class="g" d="M14.355,5.108a5.483,5.483,0,0,0-1.424-2.229A10.51,10.51,0,0,0,6.139.028,6.657,6.657,0,0,0,3.6.252,4.863,4.863,0,0,0,.444,2.514C-.312,3.943.079,5,.3,6.264h0a2.754,2.754,0,0,0,.338.514,2.632,2.632,0,0,0,.665.491A21.589,21.589,0,0,0,7.016,9.557a7.674,7.674,0,0,0,6.015-.764A3.388,3.388,0,0,0,14.11,7.757a3.317,3.317,0,0,0,.245-2.649Z" transform="translate(50.723 64.294) rotate(-179.026)"/></g></g></svg>