<svg xmlns="http://www.w3.org/2000/svg" xmlns:xlink="http://www.w3.org/1999/xlink" width="155" height="207" viewBox="0 0 155 207"><defs><style>.a,.g{fill:#fff;}.b,.c{fill:#86b8ff;}.b{font-size:20px;font-family:MyanmarSangamMN, Myanmar Sangam MN;}.d,.f{fill:none;}.d{stroke:#86b8ff;stroke-width:0.3px;}.e{fill:#a0c7ff;}.f,.g{stroke:#707070;stroke-miterlimit:10;}.h{filter:url(#a);}</style><filter id="a" x="0" y="0" width="155" height="207" filterUnits="userSpaceOnUse"><feOffset dy="3" input="SourceAlpha"/><feGaussianBlur stdDeviation="3" result="b"/><feFlood flood-opacity="0.161"/><feComposite operator="in" in2="b"/><feComposite in="SourceGraphic"/></filter></defs><g transform="translate(-1524 -45)"><g class="h" transform="matrix(1, 0, 0, 1, 1524, 45)"><rect class="a" width="137" height="189" rx="11" transform="translate(9 6)"/></g><text class="b" transform="translate(1541 75)"><tspan x="0" y="0">J</tspan></text><text class="b" transform="translate(1661 217.401) rotate(180)"><tspan x="0" y="0">J</tspan></text><g transform="translate(1176.099 -396)"><path class="c" d="M17.217,24.7a3.387,3.387,0,0,1-3.239,1.845,3.176,3.176,0,0,1-3.137-3.214,3.241,3.241,0,0,1,.861-2.207h0l.007-.007q.053-.057.109-.112l5.3-5.427L22.414,21c.037.036.073.074.109.112l.007.007h0a3.241,3.241,0,0,1,.861,2.207,3.176,3.176,0,0,1-3.137,3.214,3.3,3.3,0,0,1-3.037-1.84" transform="translate(353.159 458.423)"/><path class="d" d="M373.87,488.621v2.341" transform="translate(-3.504 -4.56)"/></g><g transform="translate(1649.099 202)"><path class="c" d="M17.217,17.422a3.387,3.387,0,0,0-3.239-1.845,3.176,3.176,0,0,0-3.137,3.214A3.241,3.241,0,0,0,11.7,21h0l.007.007q.053.057.109.112l5.3,5.427,5.3-5.427c.037-.036.073-.074.109-.112L22.53,21h0a3.241,3.241,0,0,0,.861-2.207,3.176,3.176,0,0,0-3.137-3.214,3.3,3.3,0,0,0-3.036,1.845" transform="translate(-10.841 -14.142)"/><path class="d" d="M373.87,490.961V488.62" transform="translate(-367.504 -488.621)"/></g><g transform="translate(1530.561 -123.784)"><path class="e" d="M86.546,255.79c-1.917-3.47-3.9-6.912-5.878-10.353-.652-1.133-1.3-2.267-2.021-3.37a56.543,56.543,0,0,0-7.36-8.814,19.191,19.191,0,0,0-4.289-3.5,8.366,8.366,0,0,0-5.594-1.028c-2.367.489-4.012,2.295-5.585,3.929-3.192,3.315-5,8.422-8.749,14.31l-3.284,6.169a65.973,65.973,0,0,0-5.05,11.071c-1.365,4.358-1.744,9.415.118,13.7,1.917,4.406,5.974,6.546,10.674,6.283A28.247,28.247,0,0,0,59.866,281.7c2.78-1.289,5.273-2.011,8.354-1.4,6.251,1.232,14.257,5.056,20.367,1.581C97.717,276.68,90.013,262.063,86.546,255.79Z" transform="translate(-6.703 -15.984)"/><path class="f" d="M36.065,361.719a26.83,26.83,0,0,1-7.626-5.685" transform="translate(0 -109.393)"/><path class="f" d="M34.659,347.109a22.87,22.87,0,0,0,6.479,8.476" transform="translate(-4.559 -102.851)"/><path class="f" d="M216.726,355.48c3.647-1.849,6.523-4.9,9.234-7.958" transform="translate(-138.005 -103.154)"/><path class="f" d="M216.926,350.161a53.53,53.53,0,0,0,7.256-9.373" transform="translate(-138.151 -98.218)"/><path class="f" d="M126.259,389.51a3.454,3.454,0,0,0-1.055,1.819,1.55,1.55,0,0,0,0,.8c.218.679,1.051.913,1.761.981a12.96,12.96,0,0,0,4.075.051c.995-.33,1.7-.5,2.2-1.418.371-.688.077-1.358-.711-2.263" transform="translate(-70.885 -133.905)"/><path class="f" d="M95.9,324.426a23.032,23.032,0,0,0,5.428,2.59" transform="translate(-49.448 -86.226)"/><path class="f" d="M96.914,333.791a33.168,33.168,0,0,0,5.375.18" transform="translate(-50.189 -93.09)"/><path class="f" d="M154.887,327.96a22.546,22.546,0,0,0,4.956-2.062" transform="translate(-92.68 -87.304)"/><path class="f" d="M153.661,333.346c1.927-.083,3.945.461,5.737-.25" transform="translate(-91.781 -92.58)"/><path class="g" d="M343.586,511.733a5.852,5.852,0,0,0-5.308-3.716,9.655,9.655,0,0,0-4.3.779,21.309,21.309,0,0,0-3.48,1.221c-.546.321-1.487,1-1.678,1.638a1.65,1.65,0,0,0,.23,1.254h0a11.67,11.67,0,0,0-4.024,2.479,3.03,3.03,0,0,0-.8,2.363,1.779,1.779,0,0,0,1.925,1.388,4.8,4.8,0,0,0,2.228-1.151l2.107-1.6c.389-.3.778-.593,1.158-.907a1.946,1.946,0,0,1,1.363-.594,26.378,26.378,0,0,1,6.418.618,7.776,7.776,0,0,0,2.137.366,2.333,2.333,0,0,0,1.916-1.016A3.655,3.655,0,0,0,343.586,511.733Z" transform="translate(-323.591 -266.8) rotate(-5)"/></g><g transform="translate(1587 152.52)"><path class="e" d="M43.929,257.008c1.917,3.47,3.9,6.912,5.878,10.353.652,1.133,1.3,2.267,2.021,3.37a56.546,56.546,0,0,0,7.36,8.814,19.19,19.19,0,0,0,4.289,3.5,8.366,8.366,0,0,0,5.594,1.028c2.367-.489,4.012-2.3,5.585-3.929,3.192-3.315,5-8.422,8.749-14.31l3.284-6.169a65.974,65.974,0,0,0,5.05-11.071c1.365-4.358,1.744-9.415-.118-13.7-1.917-4.406-5.974-6.546-10.674-6.283a28.247,28.247,0,0,0-10.34,2.489c-2.78,1.289-5.273,2.011-8.354,1.4C56,231.275,48,227.451,41.887,230.926,32.759,236.118,40.463,250.735,43.929,257.008Z" transform="translate(-35.816 -228.592)"/><path class="f" d="M28.439,356.034a26.83,26.83,0,0,1,7.626,5.685" transform="translate(23.451 -340.139)"/><path class="f" d="M41.138,355.585a22.87,22.87,0,0,0-6.479-8.476" transform="translate(16.718 -331.621)"/><path class="f" d="M225.96,347.522c-3.647,1.849-6.523,4.9-9.234,7.958" transform="translate(-216.726 -331.627)"/><path class="f" d="M224.182,340.788a53.53,53.53,0,0,0-7.256,9.373" transform="translate(-215.001 -324.509)"/><path class="f" d="M132.29,393.281a3.454,3.454,0,0,0,1.055-1.819,1.55,1.55,0,0,0,0-.8c-.218-.679-1.051-.913-1.761-.981a12.958,12.958,0,0,0-4.075-.051c-1,.33-1.7.5-2.2,1.418-.371.688-.077,1.358.711,2.263" transform="translate(-99.709 -380.665)"/><path class="f" d="M101.332,327.016a23.031,23.031,0,0,0-5.428-2.59" transform="translate(-59.832 -296.994)"/><path class="f" d="M102.289,333.991a33.165,33.165,0,0,0-5.375-.18" transform="translate(-61.058 -306.471)"/><path class="f" d="M159.843,325.9a22.548,22.548,0,0,0-4.956,2.062" transform="translate(-134.094 -298.332)"/><path class="f" d="M159.4,333.217c-1.927.083-3.945-.461-5.737.25" transform="translate(-133.322 -305.761)"/><path class="g" d="M19.4,3.725A5.852,5.852,0,0,0,14.1.009,9.654,9.654,0,0,0,9.8.788,21.314,21.314,0,0,0,6.312,2.01c-.546.321-1.487,1-1.678,1.638A1.65,1.65,0,0,0,4.864,4.9h0A11.669,11.669,0,0,0,.84,7.381a3.03,3.03,0,0,0-.8,2.363,1.779,1.779,0,0,0,1.925,1.388A4.8,4.8,0,0,0,4.189,9.981L6.3,8.38c.389-.3.778-.593,1.158-.907a1.946,1.946,0,0,1,1.363-.594,26.377,26.377,0,0,1,6.418.618,7.776,7.776,0,0,0,2.137.366,2.333,2.333,0,0,0,1.916-1.016A3.655,3.655,0,0,0,19.4,3.725Z" transform="translate(44.323 57.201) rotate(175)"/></g></g></svg>