<svg xmlns="http://www.w3.org/2000/svg" xmlns:xlink="http://www.w3.org/1999/xlink" width="155" height="207" viewBox="0 0 155 207"><defs><style>.a{fill:#fff;}.b,.e{fill:#86b8ff;}.b{font-size:20px;font-family:MyanmarSangamMN, Myanmar Sangam MN;}.c{fill:#a0c7ff;}.d,.f{fill:none;}.d{stroke:#707070;stroke-miterlimit:10;}.f{stroke:#86b8ff;stroke-width:0.3px;}.g{filter:url(#a);}</style><filter id="a" x="0" y="0" width="155" height="207" filterUnits="userSpaceOnUse"><feOffset dy="3" input="SourceAlpha"/><feGaussianBlur stdDeviation="3" result="b"/><feFlood flood-opacity="0.161"/><feComposite operator="in" in2="b"/><feComposite in="SourceGraphic"/></filter></defs><g transform="translate(-201 -45)"><g class="g" transform="matrix(1, 0, 0, 1, 201, 45)"><rect class="a" width="137" height="189" rx="11" transform="translate(9 6)"/></g><text class="b" transform="translate(218 75)"><tspan x="0" y="0">2</tspan></text><text class="b" transform="translate(338 217.401) rotate(180)"><tspan x="0" y="0">2</tspan></text><g transform="translate(258.561 -79.123)"><path class="c" d="M67.842,251.861c-.605-1.459-1.237-2.91-1.868-4.361-.208-.478-.416-.956-.651-1.424a22.532,22.532,0,0,0-2.524-3.817,7.648,7.648,0,0,0-1.543-1.576,3.334,3.334,0,0,0-2.17-.655,4.549,4.549,0,0,0-2.386,1.308c-1.411,1.171-2.356,3.113-4.1,5.279l-1.574,2.3a26.286,26.286,0,0,0-2.491,4.16,7.961,7.961,0,0,0-.561,5.429,4.156,4.156,0,0,0,3.948,2.962,11.256,11.256,0,0,0,4.2-.527,5.109,5.109,0,0,1,3.371-.185c2.421.765,5.422,2.635,8,1.53C71.339,260.629,68.937,254.5,67.842,251.861Z" transform="translate(-12.299 -25.597)"/><path class="d" d="M125.593,389.49a1.376,1.376,0,0,0-.421.725.618.618,0,0,0,0,.318c.087.271.419.364.7.391a5.163,5.163,0,0,0,1.624.02c.4-.131.678-.2.876-.565.148-.274.031-.541-.284-.9" transform="translate(-81.496 -159.152)"/><g transform="translate(41.131 223.402)"><path class="d" d="M95.9,324.426a9.177,9.177,0,0,0,2.163,1.032" transform="translate(-95.904 -324.426)"/><path class="d" d="M96.914,333.791a13.217,13.217,0,0,0,2.142.072" transform="translate(-96.807 -332.794)"/></g><g transform="translate(47.866 223.559)"><path class="d" d="M154.887,326.72a8.987,8.987,0,0,0,1.975-.822" transform="translate(-154.757 -325.898)"/><path class="d" d="M153.661,333.2a6.97,6.97,0,0,0,2.286-.1" transform="translate(-153.661 -332.33)"/></g></g><g transform="translate(239.976 133.467)"><path class="c" d="M49.465,251.861c.6-1.459,1.237-2.91,1.868-4.361.208-.478.416-.956.651-1.424a22.533,22.533,0,0,1,2.524-3.817,7.647,7.647,0,0,1,1.543-1.576,3.334,3.334,0,0,1,2.17-.655,4.549,4.549,0,0,1,2.386,1.308c1.411,1.171,2.356,3.113,4.1,5.279l1.574,2.3a26.285,26.285,0,0,1,2.491,4.16,7.961,7.961,0,0,1,.561,5.429,4.156,4.156,0,0,1-3.948,2.962,11.256,11.256,0,0,1-4.2-.527,5.109,5.109,0,0,0-3.371-.185c-2.421.765-5.422,2.635-8,1.53C45.968,260.629,48.37,254.5,49.465,251.861Z" transform="translate(-47.713 -238.187)"/><path class="d" d="M128,389.49a1.376,1.376,0,0,1,.421.725.618.618,0,0,1,0,.318c-.087.271-.419.364-.7.391a5.163,5.163,0,0,1-1.624.02c-.4-.131-.678-.2-.876-.565-.148-.274-.031-.541.284-.9" transform="translate(-114.799 -371.742)"/><g transform="translate(13.914 10.812)"><path class="d" d="M98.067,324.426a9.176,9.176,0,0,1-2.163,1.032" transform="translate(-95.818 -324.426)"/><path class="d" d="M99.056,333.791a13.217,13.217,0,0,1-2.142.072" transform="translate(-96.914 -332.794)"/></g><g transform="translate(7.143 10.969)"><path class="d" d="M156.862,326.72a8.987,8.987,0,0,1-1.975-.822" transform="translate(-154.706 -325.898)"/><path class="d" d="M155.947,333.2a6.97,6.97,0,0,1-2.286-.1" transform="translate(-153.661 -332.33)"/></g></g><g transform="translate(-146.901 -396)"><path class="e" d="M17.217,24.7a3.387,3.387,0,0,1-3.239,1.845,3.176,3.176,0,0,1-3.137-3.214,3.241,3.241,0,0,1,.861-2.207h0l.007-.007q.053-.057.109-.112l5.3-5.427L22.414,21c.037.036.073.074.109.112l.007.007h0a3.241,3.241,0,0,1,.861,2.207,3.176,3.176,0,0,1-3.137,3.214,3.3,3.3,0,0,1-3.037-1.84" transform="translate(353.159 458.423)"/><path class="f" d="M373.87,488.621v2.341" transform="translate(-3.504 -4.56)"/></g><g transform="translate(326.099 202)"><path class="e" d="M17.217,17.422a3.387,3.387,0,0,0-3.239-1.845,3.176,3.176,0,0,0-3.137,3.214A3.241,3.241,0,0,0,11.7,21h0l.007.007q.053.057.109.112l5.3,5.427,5.3-5.427c.037-.036.073-.074.109-.112L22.53,21h0a3.241,3.241,0,0,0,.861-2.207,3.176,3.176,0,0,0-3.137-3.214,3.3,3.3,0,0,0-3.036,1.845" transform="translate(-10.841 -14.142)"/><path class="f" d="M373.87,490.961V488.62" transform="translate(-367.504 -488.621)"/></g></g></svg>