<svg xmlns="http://www.w3.org/2000/svg" xmlns:xlink="http://www.w3.org/1999/xlink" width="155" height="207" viewBox="0 0 155 207"><defs><style>.a{fill:#fff;}.b,.c{fill:#86b8ff;}.b{font-size:20px;font-family:MyanmarSangamMN, Myanmar Sangam MN;}.d,.f{fill:none;}.d{stroke:#86b8ff;stroke-width:0.3px;}.e{fill:#a0c7ff;}.f{stroke:#707070;stroke-miterlimit:10;}.g{filter:url(#a);}</style><filter id="a" x="0" y="0" width="155" height="207" filterUnits="userSpaceOnUse"><feOffset dy="3" input="SourceAlpha"/><feGaussianBlur stdDeviation="3" result="b"/><feFlood flood-opacity="0.161"/><feComposite operator="in" in2="b"/><feComposite in="SourceGraphic"/></filter></defs><g transform="translate(-54 -45)"><g class="g" transform="matrix(1, 0, 0, 1, 54, 45)"><rect class="a" width="137" height="189" rx="11" transform="translate(9 6)"/></g><text class="b" transform="translate(69 75)"><tspan x="0" y="0">A</tspan></text><g transform="translate(-293.901 -396)"><path class="c" d="M17.217,24.7a3.387,3.387,0,0,1-3.239,1.845,3.176,3.176,0,0,1-3.137-3.214,3.241,3.241,0,0,1,.861-2.207h0l.007-.007q.053-.057.109-.112l5.3-5.427L22.414,21c.037.036.073.074.109.112l.007.007h0a3.241,3.241,0,0,1,.861,2.207,3.176,3.176,0,0,1-3.137,3.214,3.3,3.3,0,0,1-3.037-1.84" transform="translate(353.159 458.423)"/><path class="d" d="M373.87,488.621v2.341" transform="translate(-3.504 -4.56)"/></g><text class="b" transform="matrix(1, 0, 0, -1, 178, 217.401)"><tspan x="0" y="0">A</tspan></text><g transform="translate(179.099 202)"><path class="c" d="M17.217,17.422a3.387,3.387,0,0,0-3.239-1.845,3.176,3.176,0,0,0-3.137,3.214A3.241,3.241,0,0,0,11.7,21h0l.007.007q.053.057.109.112l5.3,5.427,5.3-5.427c.037-.036.073-.074.109-.112L22.53,21h0a3.241,3.241,0,0,0,.861-2.207,3.176,3.176,0,0,0-3.137-3.214,3.3,3.3,0,0,0-3.036,1.845" transform="translate(-10.841 -14.142)"/><path class="d" d="M373.87,490.961V488.62" transform="translate(-367.504 -488.621)"/></g><g transform="translate(62.561 -106.49)"><path class="e" d="M108.782,275.95c-1.836-4.427-3.752-8.829-5.668-13.23-.631-1.449-1.262-2.9-1.974-4.32a68.357,68.357,0,0,0-7.657-11.581,23.2,23.2,0,0,0-4.683-4.782,10.116,10.116,0,0,0-6.583-1.988c-2.909.269-5.129,2.217-7.239,3.968-4.282,3.554-7.147,9.446-12.438,16.016L57.765,267a79.754,79.754,0,0,0-7.558,12.622c-2.226,5.052-3.363,11.077-1.7,16.472,1.71,5.552,6.3,8.669,11.979,8.986a34.15,34.15,0,0,0,12.757-1.6c3.514-1.174,6.606-1.706,10.226-.562,7.345,2.322,16.449,7.994,24.258,4.641C119.391,302.553,112.1,283.954,108.782,275.95Z" transform="translate(-12.299 -21.205)"/><path class="f" d="M126.491,389.517a4.175,4.175,0,0,0-1.276,2.2,1.874,1.874,0,0,0,0,.963c.264.821,1.271,1.1,2.13,1.187,1.261.122,3.725.46,4.927.062s2.058-.6,2.659-1.715c.448-.832.093-1.642-.86-2.736" transform="translate(-64.734 -122.409)"/><g transform="translate(52.758 246.065)"><path class="f" d="M95.9,324.426a27.842,27.842,0,0,0,6.562,3.131" transform="translate(-95.904 -324.426)"/><path class="f" d="M96.914,333.791a40.1,40.1,0,0,0,6.5.217" transform="translate(-96.588 -330.767)"/></g><g transform="translate(73.19 246.54)"><path class="f" d="M154.887,328.391a27.26,27.26,0,0,0,5.992-2.493" transform="translate(-154.491 -325.898)"/><path class="f" d="M153.661,333.4c2.33-.1,4.769.557,6.937-.3" transform="translate(-153.661 -330.772)"/></g></g></g></svg>